<?xml version="1.0" encoding="utf-8"?>
<svg viewBox="0 0 500 500" xmlns="http://www.w3.org/2000/svg">
  <path d="M 131.726 77.69 C 131.833 80.737 131.886 82.817 131.886 83.93 L 131.886 90.71 C 131.886 103.257 132.569 112.93 133.936 119.73 C 134.569 122.803 135.419 125.56 136.486 128 C 144.359 113.753 149.629 101.933 152.296 92.54 C 154.276 85.607 155.266 78.877 155.266 72.35 C 155.266 65.83 153.489 59.103 149.936 52.17 C 147.369 47.217 144.056 43.66 139.996 41.5 C 137.889 40.413 135.553 39.87 132.986 39.87 C 132.226 39.87 131.573 40.027 131.026 40.34 C 130.479 40.66 130.066 40.897 129.786 41.05 L 128.606 44.63 C 128.099 45.67 127.363 46.19 126.396 46.19 C 125.636 46.19 125.206 45.67 125.106 44.63 C 125.259 44.143 125.386 43.64 125.486 43.12 C 125.586 42.6 125.713 42.087 125.866 41.58 C 126.833 38 129.579 36.21 134.106 36.21 C 138.639 36.21 142.836 38.057 146.696 41.75 C 150.556 45.443 153.579 50.033 155.766 55.52 C 157.946 61.007 159.036 65.883 159.036 70.15 C 159.036 88.837 152.689 108.513 139.996 129.18 C 138.316 131.92 136.893 133.29 135.726 133.29 C 134.559 133.29 133.226 130.65 131.726 125.37 C 129.446 116.89 128.306 105.133 128.306 90.1 C 124.366 103.84 120.126 115.28 115.586 124.42 C 114.773 126.02 113.983 127.58 113.216 129.1 C 111.669 132.173 110.059 133.71 108.386 133.71 C 107.926 133.71 107.539 133.487 107.226 133.04 C 106.906 132.6 106.746 131.987 106.746 131.2 C 106.746 123.887 106.409 117.107 105.736 110.86 C 105.063 104.613 104.493 99.663 104.026 96.01 C 103.553 92.35 102.979 87.443 102.306 81.29 C 101.633 75.13 101.296 68.547 101.296 61.54 C 101.296 59.94 101.619 58.903 102.266 58.43 C 102.919 57.963 103.459 57.73 103.886 57.73 C 104.653 57.73 105.036 58.2 105.036 59.14 L 104.646 63.98 C 104.646 65.6 104.756 67.637 104.976 70.09 C 105.189 72.537 105.379 75.57 105.546 79.19 C 105.713 82.81 106.506 90.187 107.926 101.32 C 109.346 112.453 110.209 121.04 110.516 127.08 C 111.656 124.62 112.716 122.343 113.696 120.25 C 114.676 118.157 115.609 116.067 116.496 113.98 C 119.976 105.807 123.859 93.683 128.146 77.61 C 128.073 75.023 128.036 72.003 128.036 68.55 C 128.036 65.097 128.283 62.507 128.776 60.78 C 129.269 59.053 130.126 58.19 131.346 58.19 C 132.793 58.19 133.516 60.537 133.516 65.23 C 133.516 68.357 132.919 72.51 131.726 77.69 ZM 185.102 98.46 C 185.669 96.167 186.169 94.707 186.602 94.08 C 187.035 93.46 187.672 93.15 188.512 93.15 C 189.345 93.15 189.762 93.453 189.762 94.06 C 189.762 94.673 188.625 99.987 186.352 110 C 184.079 120.02 182.539 126.883 181.732 130.59 C 182.745 129.697 183.645 128.857 184.432 128.07 C 185.219 127.283 185.915 126.623 186.522 126.09 C 187.135 125.557 187.669 125.29 188.122 125.29 C 189.089 125.29 189.572 125.723 189.572 126.59 C 189.572 127.123 189.369 127.643 188.962 128.15 C 186.122 130.69 183.419 132.923 180.852 134.85 C 178.665 146.863 176.582 154.773 174.602 158.58 C 174.069 159.62 173.372 160.61 172.512 161.55 C 170.452 163.89 168.102 165.06 165.462 165.06 C 162.822 165.06 160.779 164.087 159.332 162.14 C 157.885 160.2 157.162 158.31 157.162 156.47 C 157.162 154.63 157.392 153.037 157.852 151.69 C 158.305 150.343 158.925 149.11 159.712 147.99 C 160.499 146.877 161.425 145.843 162.492 144.89 C 163.559 143.937 164.702 143.017 165.922 142.13 C 167.142 141.237 168.405 140.36 169.712 139.5 C 171.019 138.633 172.319 137.72 173.612 136.76 L 177.422 133.86 C 177.702 132.747 178.669 129.523 180.322 124.19 C 181.969 118.857 182.932 115.683 183.212 114.67 C 181.032 121.043 178.355 126.007 175.182 129.56 C 173.049 131.947 171.015 133.14 169.082 133.14 C 167.155 133.14 165.569 132.367 164.322 130.82 C 163.075 129.267 162.452 127.083 162.452 124.27 C 162.452 119.897 163.699 113.013 166.192 103.62 C 167.432 98.947 168.052 96.41 168.052 96.01 C 167.952 95.27 168.005 94.76 168.212 94.48 C 168.945 93.493 169.809 93 170.802 93 C 171.789 93 172.282 93.507 172.282 94.52 C 172.282 95.46 171.319 99.84 169.392 107.66 C 167.459 115.48 166.492 120.717 166.492 123.37 C 166.492 126.023 166.815 127.693 167.462 128.38 C 168.109 129.067 168.902 129.41 169.842 129.41 C 171.849 129.41 173.959 127.747 176.172 124.42 C 178.379 121.093 180.275 116.51 181.862 110.67 C 183.449 104.83 184.529 100.76 185.102 98.46 Z M 175.482 143.46 L 176.472 138.4 C 174.392 139.993 172.419 141.427 170.552 142.7 C 168.685 143.967 167.052 145.237 165.652 146.51 C 162.632 149.25 161.122 152.31 161.122 155.69 C 161.122 157.823 161.822 159.473 163.222 160.64 C 163.802 161.093 164.582 161.32 165.562 161.32 C 166.535 161.32 167.435 160.99 168.262 160.33 C 169.089 159.67 169.832 158.82 170.492 157.78 C 171.152 156.74 171.742 155.56 172.262 154.24 C 172.782 152.92 173.245 151.6 173.652 150.28 C 174.059 148.96 174.409 147.697 174.702 146.49 C 174.995 145.283 175.255 144.273 175.482 143.46 ZM 202.286 122.7 C 202.286 127.327 203.976 129.64 207.356 129.64 C 209.029 129.64 210.603 128.827 212.076 127.2 C 212.636 126.567 213.156 125.993 213.636 125.48 C 214.116 124.973 214.609 124.72 215.116 124.72 C 216.136 124.72 216.646 125.167 216.646 126.06 C 216.646 127.68 215.606 129.323 213.526 130.99 C 211.439 132.65 209.083 133.48 206.456 133.48 C 203.829 133.48 201.836 132.51 200.476 130.57 C 199.116 128.623 198.436 126.433 198.436 124 C 198.436 119.453 199.283 114.743 200.976 109.87 C 202.663 104.997 204.883 100.91 207.636 97.61 C 210.389 94.303 213.303 92.65 216.376 92.65 C 218.609 92.65 220.083 93.45 220.796 95.05 C 220.976 95.483 221.186 96.037 221.426 96.71 C 221.666 97.383 221.939 97.81 222.246 97.99 C 222.446 98.317 222.546 98.717 222.546 99.19 C 222.546 99.657 222.329 100.093 221.896 100.5 C 221.469 100.907 220.989 101.11 220.456 101.11 C 219.363 101.11 218.663 100.303 218.356 98.69 C 218.056 97.077 217.206 96.27 215.806 96.27 C 213.853 96.27 211.829 97.757 209.736 100.73 C 207.636 103.697 205.869 107.3 204.436 111.54 C 203.003 115.78 202.286 119.5 202.286 122.7 ZM 233.618 130.02 L 233.698 131.35 C 233.698 132.543 232.734 133.14 230.808 133.14 C 229.914 133.14 229.468 132.707 229.468 131.84 C 229.468 130.98 232.008 118.897 237.088 95.59 C 240.874 77.737 243.274 65.687 244.288 59.44 L 244.588 58.41 C 244.821 57.65 245.278 57.27 245.958 57.27 C 247.258 57.27 248.084 57.917 248.438 59.21 C 248.238 60.177 247.964 61.523 247.618 63.25 C 247.278 64.977 246.878 66.943 246.418 69.15 C 245.964 71.363 245.471 73.753 244.938 76.32 C 244.404 78.88 243.858 81.48 243.298 84.12 C 242.738 86.76 241.888 90.797 240.748 96.23 C 239.601 101.663 238.621 106.223 237.808 109.91 C 243.114 98.99 248.131 93.53 252.858 93.53 C 254.784 93.53 256.218 94.287 257.158 95.8 C 258.098 97.307 258.568 98.973 258.568 100.8 C 258.568 102.633 258.238 105.187 257.578 108.46 L 256.288 115.01 C 254.861 122.197 254.148 126.487 254.148 127.88 L 254.268 130.85 C 254.268 131.51 254.044 132.043 253.598 132.45 C 253.151 132.857 252.561 133.06 251.828 133.06 C 251.094 133.06 250.554 132.8 250.208 132.28 C 249.868 131.76 249.698 131.26 249.698 130.78 C 249.698 130.293 249.734 129.86 249.808 129.48 L 254.338 104.16 C 254.491 103.347 254.568 102.407 254.568 101.34 C 254.568 98.72 253.844 97.41 252.398 97.41 C 249.658 97.41 245.924 101.513 241.198 109.72 C 238.531 114.367 236.894 117.583 236.288 119.37 C 235.681 121.163 235.084 123.22 234.498 125.54 C 233.911 127.867 233.618 129.36 233.618 130.02 ZM 286.824 93.15 C 291.617 93.15 294.014 96.78 294.014 104.04 C 294.014 109.7 292.454 115.78 289.334 122.28 C 287.227 126.653 284.687 129.803 281.714 131.73 C 280.194 132.723 278.621 133.22 276.994 133.22 C 274.127 133.22 272.071 132.077 270.824 129.79 C 269.577 127.503 268.954 125.04 268.954 122.4 C 268.954 117.68 269.747 113.097 271.334 108.65 C 272.921 104.21 275.081 100.517 277.814 97.57 C 280.541 94.623 283.544 93.15 286.824 93.15 Z M 276.614 105.76 C 273.874 111.24 272.504 116.597 272.504 121.83 C 272.504 125.457 273.504 127.893 275.504 129.14 C 276.117 129.52 276.817 129.71 277.604 129.71 C 279.231 129.71 281.047 128.3 283.054 125.48 C 285.054 122.667 286.741 119.197 288.114 115.07 C 289.487 110.943 290.174 107.4 290.174 104.44 C 290.174 101.48 290.001 99.607 289.654 98.82 C 289.314 98.033 288.921 97.49 288.474 97.19 C 288.034 96.883 287.297 96.73 286.264 96.73 C 285.237 96.73 284.114 97.137 282.894 97.95 C 280.534 99.47 278.441 102.073 276.614 105.76 ZM 310.351 132.76 C 309.258 132.76 308.711 131.693 308.711 129.56 C 307.844 125.927 306.911 120.213 305.911 112.42 C 304.911 104.627 304.231 99.937 303.871 98.35 C 303.518 96.763 303.341 95.787 303.341 95.42 C 303.341 95.047 303.551 94.627 303.971 94.16 C 304.391 93.687 304.828 93.45 305.281 93.45 C 305.741 93.45 306.168 93.643 306.561 94.03 C 306.954 94.41 307.244 95.05 307.431 95.95 C 307.624 96.85 307.948 98.817 308.401 101.85 C 308.861 104.883 309.491 109.347 310.291 115.24 C 311.091 121.127 311.604 124.287 311.831 124.72 C 312.698 122.287 313.651 119.737 314.691 117.07 C 318.904 106.097 321.391 98.617 322.151 94.63 C 322.331 93.643 322.928 93.15 323.941 93.15 C 324.528 93.15 324.941 93.303 325.181 93.61 C 325.421 93.91 325.581 94.353 325.661 94.94 C 326.854 107.053 328.251 117.373 329.851 125.9 C 337.591 113.46 341.461 103.533 341.461 96.12 C 341.461 92.413 340.268 89.29 337.881 86.75 C 337.528 86.37 337.051 86.01 336.451 85.67 C 335.858 85.323 335.268 84.973 334.681 84.62 C 333.234 83.78 332.511 83.03 332.511 82.37 C 332.511 81.863 332.728 81.4 333.161 80.98 C 333.594 80.56 334.114 80.35 334.721 80.35 C 335.334 80.35 336.578 80.947 338.451 82.14 C 340.331 83.333 341.881 85.073 343.101 87.36 C 344.321 89.647 344.931 92.363 344.931 95.51 C 344.931 100.843 343.871 106.087 341.751 111.24 C 339.631 116.393 336.944 121.407 333.691 126.28 C 333.284 126.893 332.878 127.593 332.471 128.38 C 330.878 131.5 329.408 133.06 328.061 133.06 C 326.868 133.06 326.271 132.02 326.271 129.94 C 326.271 129.56 326.301 129.18 326.361 128.8 C 326.428 128.42 326.371 127.707 326.191 126.66 C 324.411 117.14 323.244 109.97 322.691 105.15 C 321.924 106.877 320.388 110.88 318.081 117.16 C 315.768 123.447 313.788 128.317 312.141 131.77 C 311.654 132.43 311.058 132.76 310.351 132.76 ZM 354.516 132.53 C 351.549 132.53 350.066 130.663 350.066 126.93 C 350.066 123.197 351.456 118.62 354.236 113.2 C 357.016 107.78 360.283 103.097 364.036 99.15 C 367.796 95.203 370.863 93.23 373.236 93.23 C 375.609 93.23 376.963 94.27 377.296 96.35 C 377.396 96.983 377.473 97.657 377.526 98.37 C 377.753 98.217 378.029 98.14 378.356 98.14 C 379.549 98.14 380.146 98.71 380.146 99.85 L 380.146 100.16 C 380.146 100.233 379.829 101.373 379.196 103.58 C 378.563 105.793 377.839 109.477 377.026 114.63 C 376.213 119.783 375.806 124.19 375.806 127.85 C 376.039 127.997 376.306 128.167 376.606 128.36 C 376.913 128.553 377.296 128.847 377.756 129.24 C 378.209 129.633 378.436 130.097 378.436 130.63 C 378.436 131.163 378.273 131.637 377.946 132.05 C 377.613 132.47 377.143 132.68 376.536 132.68 C 375.289 132.68 374.166 132.047 373.166 130.78 C 372.159 129.507 371.656 128.133 371.656 126.66 C 371.656 123.487 372.519 118.03 374.246 110.29 C 372.086 114.81 369.293 119.163 365.866 123.35 C 362.439 127.543 360.073 130.12 358.766 131.08 C 357.459 132.047 356.043 132.53 354.516 132.53 Z M 353.946 127.08 C 353.946 128.02 354.339 128.49 355.126 128.49 C 355.686 128.49 356.156 128.3 356.536 127.92 C 361.796 123.4 366.506 117.143 370.666 109.15 C 373.026 104.577 374.276 101.947 374.416 101.26 C 374.556 100.573 374.626 99.99 374.626 99.51 C 374.626 99.03 374.499 98.573 374.246 98.14 C 373.993 97.707 373.639 97.49 373.186 97.49 C 372.726 97.49 372.053 97.73 371.166 98.21 C 369.206 99.277 366.799 101.55 363.946 105.03 C 361.086 108.51 358.706 112.293 356.806 116.38 C 354.899 120.467 353.946 124.033 353.946 127.08 ZM 414.225 101.68 C 414.225 99.167 413.542 97.91 412.175 97.91 C 410.348 97.91 406.855 103.153 401.695 113.64 C 399.362 118.387 397.732 121.973 396.805 124.4 C 395.878 126.827 395.185 128.533 394.725 129.52 C 394.272 130.513 393.822 131.263 393.375 131.77 C 392.935 132.277 392.442 132.53 391.895 132.53 C 391.348 132.53 391.025 132.397 390.925 132.13 C 390.818 131.863 390.765 131.38 390.765 130.68 C 390.765 129.987 391.788 123.997 393.835 112.71 C 395.875 101.423 397.055 95.487 397.375 94.9 C 397.695 94.32 397.982 93.947 398.235 93.78 C 398.488 93.613 398.945 93.53 399.605 93.53 C 400.265 93.53 400.778 93.783 401.145 94.29 C 401.512 94.797 401.695 95.247 401.695 95.64 C 401.695 96.033 401.645 96.423 401.545 96.81 C 401.365 97.49 401.098 98.34 400.745 99.36 C 399.525 102.833 398.358 107.757 397.245 114.13 L 396.445 118.74 C 397.025 117.52 397.685 116.053 398.425 114.34 C 399.158 112.627 400.248 110.17 401.695 106.97 C 403.142 103.777 404.755 100.92 406.535 98.4 C 408.822 95.1 410.955 93.45 412.935 93.45 C 416.415 93.45 418.155 96.257 418.155 101.87 C 418.155 103.977 417.855 106.603 417.255 109.75 C 416.662 112.903 416.002 116.347 415.275 120.08 C 414.555 123.807 414.155 126.89 414.075 129.33 L 413.615 131.43 C 413.615 131.983 413.535 132.383 413.375 132.63 C 413.208 132.87 412.712 132.99 411.885 132.99 C 411.058 132.99 410.462 132.837 410.095 132.53 C 409.728 132.223 409.608 131.677 409.735 130.89 L 413.545 108.12 C 413.998 105.3 414.225 103.153 414.225 101.68 ZM 440.808 80.12 C 442.301 80.12 443.048 80.87 443.048 82.37 C 443.048 84.557 442.288 85.79 440.768 86.07 C 440.334 86.143 439.864 86.18 439.358 86.18 C 438.851 86.18 438.344 85.927 437.838 85.42 C 437.324 84.913 437.068 84.26 437.068 83.46 C 437.068 82.66 437.464 81.903 438.258 81.19 C 439.044 80.477 439.894 80.12 440.808 80.12 Z M 435.438 97.91 L 435.438 97.15 C 435.438 96.79 435.248 95.927 434.868 94.56 C 434.868 93.927 435.081 93.35 435.508 92.83 C 435.941 92.303 436.468 92.04 437.088 92.04 C 437.714 92.04 438.231 92.437 438.638 93.23 C 439.044 94.017 439.248 94.88 439.248 95.82 C 439.248 96.753 438.054 102.363 435.668 112.65 C 433.281 122.93 432.088 128.343 432.088 128.89 C 432.088 129.437 432.341 129.71 432.848 129.71 C 433.174 129.71 433.644 129.387 434.258 128.74 C 434.864 128.093 435.384 127.77 435.818 127.77 C 436.651 127.77 437.068 128.297 437.068 129.35 C 437.068 130.403 436.281 131.323 434.708 132.11 C 433.134 132.897 431.994 133.29 431.288 133.29 C 429.508 133.29 428.618 131.87 428.618 129.03 C 428.618 128.443 428.738 127.787 428.978 127.06 C 429.218 126.34 429.471 125.34 429.738 124.06 C 430.004 122.773 430.388 121.027 430.888 118.82 C 431.381 116.613 431.888 114.327 432.408 111.96 C 432.928 109.6 433.561 106.74 434.308 103.38 C 435.061 100.013 435.438 98.19 435.438 97.91 ZM 466.429 126.13 C 467.316 126.13 467.759 126.6 467.759 127.54 C 467.759 128.633 466.426 129.867 463.759 131.24 C 461.093 132.607 458.873 133.29 457.099 133.29 C 455.319 133.29 453.986 133 453.099 132.42 C 452.213 131.833 451.489 131.02 450.929 129.98 C 449.836 127.947 449.289 125.497 449.289 122.63 C 449.289 117.55 450.053 112.763 451.579 108.27 C 453.099 103.777 455.129 100.05 457.669 97.09 C 460.209 94.13 462.953 92.65 465.899 92.65 C 467.473 92.65 468.709 93.307 469.609 94.62 C 470.509 95.927 470.959 97.467 470.959 99.24 C 470.959 102.567 470.089 105.387 468.349 107.7 C 466.609 110.007 464.469 111.897 461.929 113.37 C 459.396 114.843 456.476 116.24 453.169 117.56 L 453.019 123.16 C 453.019 127.527 454.339 129.71 456.979 129.71 C 458.406 129.71 459.899 129.297 461.459 128.47 C 463.019 127.65 464.143 127.053 464.829 126.68 C 465.516 126.313 466.049 126.13 466.429 126.13 Z M 467.379 99.4 C 467.379 97.367 466.529 96.35 464.829 96.35 C 463.303 96.35 461.513 97.72 459.459 100.46 C 457.399 103.2 455.699 106.82 454.359 111.32 C 454.026 112.407 453.833 113.23 453.779 113.79 C 454.799 113.23 455.843 112.697 456.909 112.19 C 457.976 111.683 459.016 111.15 460.029 110.59 C 462.363 109.297 464.173 107.78 465.459 106.04 C 466.739 104.3 467.379 102.087 467.379 99.4 Z" transform="matrix(1, 0, 0, 1, 0, 0)" style="fill: rgb(51, 51, 51); stroke-width: 45px; white-space: pre;"/>
  <path d="M 113.666 176.06 L 112.606 181.66 C 116.313 174.553 120.323 171 124.636 171 C 126.896 171 128.523 171.667 129.516 173 C 130.503 174.333 130.996 176.307 130.996 178.92 C 130.996 183.72 130.309 188.613 128.936 193.6 C 127.569 198.587 125.519 202.827 122.786 206.32 C 120.059 209.813 116.843 211.56 113.136 211.56 C 111.716 211.56 110.573 211.253 109.706 210.64 C 108.846 210.033 108.149 209.007 107.616 207.56 C 106.316 213.453 105.089 219.313 103.936 225.14 C 102.783 230.967 101.583 236.24 100.336 240.96 C 99.829 242 99.106 242.52 98.166 242.52 C 97.379 242.52 96.936 242 96.836 240.96 C 98.509 234.387 99.856 228.447 100.876 223.14 C 101.889 217.833 102.669 213.757 103.216 210.91 C 103.763 208.07 104.536 203.99 105.536 198.67 C 106.543 193.35 108.163 185.027 110.396 173.7 L 110.396 171.99 C 110.396 171.483 110.629 170.993 111.096 170.52 C 111.569 170.053 112.116 169.82 112.736 169.82 C 113.356 169.82 113.813 170.06 114.106 170.54 C 114.399 171.02 114.546 171.483 114.546 171.93 C 114.546 172.377 114.506 172.777 114.426 173.13 C 114.353 173.483 114.266 173.833 114.166 174.18 C 114.066 174.52 113.963 174.857 113.856 175.19 C 113.756 175.517 113.693 175.807 113.666 176.06 Z M 109.246 201.88 C 109.246 205.867 110.719 207.86 113.666 207.86 C 116.413 207.86 118.926 206.16 121.206 202.76 C 124.126 198.393 126.056 192.58 126.996 185.32 C 127.276 183.313 127.416 181.383 127.416 179.53 C 127.416 176.177 126.593 174.5 124.946 174.5 C 123.293 174.5 121.373 175.707 119.186 178.12 C 116.139 181.493 113.723 185.493 111.936 190.12 C 110.143 194.74 109.246 198.66 109.246 201.88 ZM 139.708 210.38 L 141.468 201.08 C 142.381 196.333 143.001 192.963 143.328 190.97 C 143.661 188.977 144.034 186.78 144.448 184.38 C 144.868 181.98 145.728 178.533 147.028 174.04 C 146.974 173.913 146.948 173.8 146.948 173.7 L 146.948 173.32 C 146.948 172.1 147.418 171.223 148.358 170.69 C 148.638 170.517 148.928 170.43 149.228 170.43 C 150.321 170.43 150.868 171.217 150.868 172.79 C 150.868 173.703 150.501 175.347 149.768 177.72 C 149.028 180.093 148.454 182.297 148.048 184.33 C 148.408 183.743 148.848 183.007 149.368 182.12 C 149.888 181.227 150.711 179.93 151.838 178.23 C 152.971 176.53 154.394 174.913 156.108 173.38 C 157.821 171.84 159.571 171.07 161.358 171.07 C 163.151 171.07 164.518 171.553 165.458 172.52 C 165.811 172.853 165.988 173.273 165.988 173.78 C 165.988 174.287 165.761 174.743 165.308 175.15 C 164.848 175.557 164.378 175.76 163.898 175.76 C 163.411 175.76 162.941 175.627 162.488 175.36 C 162.028 175.093 161.521 174.96 160.968 174.96 C 160.408 174.96 159.518 175.417 158.298 176.33 C 153.444 179.857 149.444 186.85 146.298 197.31 C 145.464 200.103 144.958 202.027 144.778 203.08 C 144.598 204.133 144.444 204.99 144.318 205.65 C 143.558 209.743 142.391 211.79 140.818 211.79 C 140.078 211.79 139.708 211.32 139.708 210.38 ZM 176.266 171.19 L 179.536 171.45 L 196.296 171.53 C 197.616 171.53 198.316 171.783 198.396 172.29 C 198.416 172.47 198.426 172.707 198.426 173 C 198.426 173.287 198.359 173.563 198.226 173.83 C 198.086 174.097 197.933 174.333 197.766 174.54 C 197.599 174.74 197.433 174.91 197.266 175.05 C 197.106 175.19 196.166 176.437 194.446 178.79 C 192.733 181.137 189.543 185.387 184.876 191.54 C 180.203 197.7 176.633 202.47 174.166 205.85 C 175.213 205.85 176.699 206.197 178.626 206.89 C 180.553 207.59 182.316 207.94 183.916 207.94 C 188.943 207.94 191.456 206.517 191.456 203.67 C 191.456 203.117 191.229 202.483 190.776 201.77 C 190.316 201.057 190.086 200.48 190.086 200.04 C 190.086 199.593 190.289 199.11 190.696 198.59 C 191.103 198.07 191.599 197.81 192.186 197.81 C 193.153 197.81 193.903 198.463 194.436 199.77 C 194.969 201.077 195.236 202.187 195.236 203.1 C 195.236 205.667 194.326 207.693 192.506 209.18 C 190.693 210.667 188.059 211.41 184.606 211.41 C 182.826 211.41 181.163 211.123 179.616 210.55 C 178.069 209.977 176.919 209.557 176.166 209.29 C 175.419 209.023 174.673 208.89 173.926 208.89 C 173.173 208.89 172.213 209.24 171.046 209.94 C 169.879 210.64 169.066 210.99 168.606 210.99 C 167.666 210.99 167.196 210.52 167.196 209.58 C 167.196 209.22 167.363 208.787 167.696 208.28 C 171.809 202.927 176.479 196.79 181.706 189.87 C 186.939 182.95 190.713 178.003 193.026 175.03 L 183.696 174.65 L 178.436 175.03 L 177.136 175.03 C 174.776 175.03 173.596 174.39 173.596 173.11 C 173.596 171.83 174.486 171.19 176.266 171.19 ZM 222.722 204.13 C 223.609 204.13 224.052 204.6 224.052 205.54 C 224.052 206.633 222.719 207.867 220.052 209.24 C 217.386 210.607 215.166 211.29 213.392 211.29 C 211.612 211.29 210.279 211 209.392 210.42 C 208.506 209.833 207.782 209.02 207.222 207.98 C 206.129 205.947 205.582 203.497 205.582 200.63 C 205.582 195.55 206.346 190.763 207.872 186.27 C 209.392 181.777 211.422 178.05 213.962 175.09 C 216.502 172.13 219.246 170.65 222.192 170.65 C 223.766 170.65 225.002 171.307 225.902 172.62 C 226.802 173.927 227.252 175.467 227.252 177.24 C 227.252 180.567 226.382 183.387 224.642 185.7 C 222.902 188.007 220.762 189.897 218.222 191.37 C 215.689 192.843 212.769 194.24 209.462 195.56 L 209.312 201.16 C 209.312 205.527 210.632 207.71 213.272 207.71 C 214.699 207.71 216.192 207.297 217.752 206.47 C 219.312 205.65 220.436 205.053 221.122 204.68 C 221.809 204.313 222.342 204.13 222.722 204.13 Z M 223.672 177.4 C 223.672 175.367 222.822 174.35 221.122 174.35 C 219.596 174.35 217.806 175.72 215.752 178.46 C 213.692 181.2 211.992 184.82 210.652 189.32 C 210.319 190.407 210.126 191.23 210.072 191.79 C 211.092 191.23 212.136 190.697 213.202 190.19 C 214.269 189.683 215.309 189.15 216.322 188.59 C 218.656 187.297 220.466 185.78 221.752 184.04 C 223.032 182.3 223.672 180.087 223.672 177.4 ZM 240.271 171.19 L 243.541 171.45 L 260.301 171.53 C 261.621 171.53 262.321 171.783 262.401 172.29 C 262.421 172.47 262.431 172.707 262.431 173 C 262.431 173.287 262.365 173.563 262.231 173.83 C 262.091 174.097 261.938 174.333 261.771 174.54 C 261.605 174.74 261.438 174.91 261.271 175.05 C 261.111 175.19 260.171 176.437 258.451 178.79 C 256.738 181.137 253.548 185.387 248.881 191.54 C 244.208 197.7 240.638 202.47 238.171 205.85 C 239.218 205.85 240.705 206.197 242.631 206.89 C 244.558 207.59 246.321 207.94 247.921 207.94 C 252.948 207.94 255.461 206.517 255.461 203.67 C 255.461 203.117 255.235 202.483 254.781 201.77 C 254.321 201.057 254.091 200.48 254.091 200.04 C 254.091 199.593 254.295 199.11 254.701 198.59 C 255.108 198.07 255.605 197.81 256.191 197.81 C 257.158 197.81 257.908 198.463 258.441 199.77 C 258.975 201.077 259.241 202.187 259.241 203.1 C 259.241 205.667 258.331 207.693 256.511 209.18 C 254.698 210.667 252.065 211.41 248.611 211.41 C 246.831 211.41 245.168 211.123 243.621 210.55 C 242.075 209.977 240.925 209.557 240.171 209.29 C 239.425 209.023 238.678 208.89 237.931 208.89 C 237.178 208.89 236.218 209.24 235.051 209.94 C 233.885 210.64 233.071 210.99 232.611 210.99 C 231.671 210.99 231.201 210.52 231.201 209.58 C 231.201 209.22 231.368 208.787 231.701 208.28 C 235.815 202.927 240.485 196.79 245.711 189.87 C 250.945 182.95 254.718 178.003 257.031 175.03 L 247.701 174.65 L 242.441 175.03 L 241.141 175.03 C 238.781 175.03 237.601 174.39 237.601 173.11 C 237.601 171.83 238.491 171.19 240.271 171.19 Z" transform="matrix(1, 0, 0, 1, 0, 0)" style="fill: rgb(51, 51, 51); stroke-width: 45px; white-space: pre;"/>
  <path d="M 106.356 278.7 C 106.356 283.327 108.046 285.64 111.426 285.64 C 113.099 285.64 114.673 284.827 116.146 283.2 C 116.706 282.567 117.226 281.993 117.706 281.48 C 118.186 280.973 118.679 280.72 119.186 280.72 C 120.206 280.72 120.716 281.167 120.716 282.06 C 120.716 283.68 119.676 285.323 117.596 286.99 C 115.509 288.65 113.153 289.48 110.526 289.48 C 107.899 289.48 105.906 288.51 104.546 286.57 C 103.186 284.623 102.506 282.433 102.506 280 C 102.506 275.453 103.353 270.743 105.046 265.87 C 106.733 260.997 108.953 256.91 111.706 253.61 C 114.459 250.303 117.373 248.65 120.446 248.65 C 122.679 248.65 124.153 249.45 124.866 251.05 C 125.046 251.483 125.256 252.037 125.496 252.71 C 125.736 253.383 126.009 253.81 126.316 253.99 C 126.516 254.317 126.616 254.717 126.616 255.19 C 126.616 255.657 126.399 256.093 125.966 256.5 C 125.539 256.907 125.059 257.11 124.526 257.11 C 123.433 257.11 122.733 256.303 122.426 254.69 C 122.126 253.077 121.276 252.27 119.876 252.27 C 117.923 252.27 115.899 253.757 113.806 256.73 C 111.706 259.697 109.939 263.3 108.506 267.54 C 107.073 271.78 106.356 275.5 106.356 278.7 ZM 138.608 249.19 L 141.878 249.45 L 158.638 249.53 C 159.958 249.53 160.658 249.783 160.738 250.29 C 160.758 250.47 160.768 250.707 160.768 251 C 160.768 251.287 160.701 251.563 160.568 251.83 C 160.428 252.097 160.274 252.333 160.108 252.54 C 159.941 252.74 159.774 252.91 159.608 253.05 C 159.448 253.19 158.508 254.437 156.788 256.79 C 155.074 259.137 151.884 263.387 147.218 269.54 C 142.544 275.7 138.974 280.47 136.508 283.85 C 137.554 283.85 139.041 284.197 140.968 284.89 C 142.894 285.59 144.658 285.94 146.258 285.94 C 151.284 285.94 153.798 284.517 153.798 281.67 C 153.798 281.117 153.571 280.483 153.118 279.77 C 152.658 279.057 152.428 278.48 152.428 278.04 C 152.428 277.593 152.631 277.11 153.038 276.59 C 153.444 276.07 153.941 275.81 154.528 275.81 C 155.494 275.81 156.244 276.463 156.778 277.77 C 157.311 279.077 157.578 280.187 157.578 281.1 C 157.578 283.667 156.668 285.693 154.848 287.18 C 153.034 288.667 150.401 289.41 146.948 289.41 C 145.168 289.41 143.504 289.123 141.958 288.55 C 140.411 287.977 139.261 287.557 138.508 287.29 C 137.761 287.023 137.014 286.89 136.268 286.89 C 135.514 286.89 134.554 287.24 133.388 287.94 C 132.221 288.64 131.408 288.99 130.948 288.99 C 130.008 288.99 129.538 288.52 129.538 287.58 C 129.538 287.22 129.704 286.787 130.038 286.28 C 134.151 280.927 138.821 274.79 144.048 267.87 C 149.281 260.95 153.054 256.003 155.368 253.03 L 146.038 252.65 L 140.778 253.03 L 139.478 253.03 C 137.118 253.03 135.938 252.39 135.938 251.11 C 135.938 249.83 136.828 249.19 138.608 249.19 ZM 190.874 254.46 C 191.441 252.167 191.941 250.707 192.374 250.08 C 192.807 249.46 193.444 249.15 194.284 249.15 C 195.117 249.15 195.534 249.453 195.534 250.06 C 195.534 250.673 194.397 255.987 192.124 266 C 189.851 276.02 188.311 282.883 187.504 286.59 C 188.517 285.697 189.417 284.857 190.204 284.07 C 190.991 283.283 191.687 282.623 192.294 282.09 C 192.907 281.557 193.441 281.29 193.894 281.29 C 194.861 281.29 195.344 281.723 195.344 282.59 C 195.344 283.123 195.141 283.643 194.734 284.15 C 191.894 286.69 189.191 288.923 186.624 290.85 C 184.437 302.863 182.354 310.773 180.374 314.58 C 179.841 315.62 179.144 316.61 178.284 317.55 C 176.224 319.89 173.874 321.06 171.234 321.06 C 168.594 321.06 166.551 320.087 165.104 318.14 C 163.657 316.2 162.934 314.31 162.934 312.47 C 162.934 310.63 163.164 309.037 163.624 307.69 C 164.077 306.343 164.697 305.11 165.484 303.99 C 166.271 302.877 167.197 301.843 168.264 300.89 C 169.331 299.937 170.474 299.017 171.694 298.13 C 172.914 297.237 174.177 296.36 175.484 295.5 C 176.791 294.633 178.091 293.72 179.384 292.76 L 183.194 289.86 C 183.474 288.747 184.441 285.523 186.094 280.19 C 187.741 274.857 188.704 271.683 188.984 270.67 C 186.804 277.043 184.127 282.007 180.954 285.56 C 178.821 287.947 176.787 289.14 174.854 289.14 C 172.927 289.14 171.341 288.367 170.094 286.82 C 168.847 285.267 168.224 283.083 168.224 280.27 C 168.224 275.897 169.471 269.013 171.964 259.62 C 173.204 254.947 173.824 252.41 173.824 252.01 C 173.724 251.27 173.777 250.76 173.984 250.48 C 174.717 249.493 175.581 249 176.574 249 C 177.561 249 178.054 249.507 178.054 250.52 C 178.054 251.46 177.091 255.84 175.164 263.66 C 173.231 271.48 172.264 276.717 172.264 279.37 C 172.264 282.023 172.587 283.693 173.234 284.38 C 173.881 285.067 174.674 285.41 175.614 285.41 C 177.621 285.41 179.731 283.747 181.944 280.42 C 184.151 277.093 186.047 272.51 187.634 266.67 C 189.221 260.83 190.301 256.76 190.874 254.46 Z M 181.254 299.46 L 182.244 294.4 C 180.164 295.993 178.191 297.427 176.324 298.7 C 174.457 299.967 172.824 301.237 171.424 302.51 C 168.404 305.25 166.894 308.31 166.894 311.69 C 166.894 313.823 167.594 315.473 168.994 316.64 C 169.574 317.093 170.354 317.32 171.334 317.32 C 172.307 317.32 173.207 316.99 174.034 316.33 C 174.861 315.67 175.604 314.82 176.264 313.78 C 176.924 312.74 177.514 311.56 178.034 310.24 C 178.554 308.92 179.017 307.6 179.424 306.28 C 179.831 304.96 180.181 303.697 180.474 302.49 C 180.767 301.283 181.027 300.273 181.254 299.46 ZM 212.248 252.65 C 210.088 252.65 208.221 252.777 206.648 253.03 C 205.608 252.93 205.088 252.487 205.088 251.7 C 205.088 251.247 205.278 250.777 205.658 250.29 C 206.038 249.81 206.544 249.53 207.178 249.45 L 212.818 249.61 C 212.918 249.077 213.024 248.433 213.138 247.68 C 213.258 246.933 213.461 245.843 213.748 244.41 C 214.041 242.977 214.448 241.673 214.968 240.5 C 215.488 239.333 216.168 238.75 217.008 238.75 C 217.848 238.75 218.268 239.22 218.268 240.16 L 218.268 240.66 C 217.528 243.807 216.904 246.763 216.398 249.53 L 221.998 249.53 C 223.978 249.53 225.191 249.683 225.638 249.99 C 226.078 250.29 226.298 250.67 226.298 251.13 C 226.298 252.017 225.754 252.6 224.668 252.88 C 224.108 253.033 222.981 253.11 221.288 253.11 C 219.601 253.11 217.768 253.033 215.788 252.88 C 215.308 255.42 214.234 260.17 212.568 267.13 C 210.908 274.083 210.078 278.57 210.078 280.59 C 210.078 282.61 210.304 283.937 210.758 284.57 C 211.091 284.977 211.651 285.18 212.438 285.18 C 213.224 285.18 213.898 284.95 214.458 284.49 C 215.018 284.037 215.524 283.537 215.978 282.99 C 216.438 282.443 216.888 281.94 217.328 281.48 C 217.774 281.027 218.264 280.8 218.798 280.8 C 219.838 280.8 220.358 281.32 220.358 282.36 C 220.358 282.893 219.831 283.777 218.778 285.01 C 217.724 286.237 216.754 287.18 215.868 287.84 C 214.974 288.5 213.678 288.83 211.978 288.83 C 210.278 288.83 209.111 288.54 208.478 287.96 C 207.158 286.793 206.498 284.927 206.498 282.36 C 206.498 281.04 206.651 279.48 206.958 277.68 L 207.678 273.26 C 208.158 271.073 208.588 269.163 208.968 267.53 C 209.354 265.89 209.684 264.447 209.958 263.2 C 210.238 261.96 210.608 260.343 211.068 258.35 C 211.521 256.357 211.914 254.457 212.248 252.65 ZM 236.039 288.53 C 233.073 288.53 231.589 286.663 231.589 282.93 C 231.589 279.197 232.979 274.62 235.759 269.2 C 238.539 263.78 241.806 259.097 245.559 255.15 C 249.319 251.203 252.386 249.23 254.759 249.23 C 257.133 249.23 258.486 250.27 258.819 252.35 C 258.919 252.983 258.996 253.657 259.049 254.37 C 259.276 254.217 259.553 254.14 259.879 254.14 C 261.073 254.14 261.669 254.71 261.669 255.85 L 261.669 256.16 C 261.669 256.233 261.353 257.373 260.719 259.58 C 260.086 261.793 259.363 265.477 258.549 270.63 C 257.736 275.783 257.329 280.19 257.329 283.85 C 257.563 283.997 257.829 284.167 258.129 284.36 C 258.436 284.553 258.819 284.847 259.279 285.24 C 259.733 285.633 259.959 286.097 259.959 286.63 C 259.959 287.163 259.796 287.637 259.469 288.05 C 259.136 288.47 258.666 288.68 258.059 288.68 C 256.813 288.68 255.689 288.047 254.689 286.78 C 253.683 285.507 253.179 284.133 253.179 282.66 C 253.179 279.487 254.043 274.03 255.769 266.29 C 253.609 270.81 250.816 275.163 247.389 279.35 C 243.963 283.543 241.596 286.12 240.289 287.08 C 238.983 288.047 237.566 288.53 236.039 288.53 Z M 235.469 283.08 C 235.469 284.02 235.863 284.49 236.649 284.49 C 237.209 284.49 237.679 284.3 238.059 283.92 C 243.319 279.4 248.029 273.143 252.189 265.15 C 254.549 260.577 255.799 257.947 255.939 257.26 C 256.079 256.573 256.149 255.99 256.149 255.51 C 256.149 255.03 256.023 254.573 255.769 254.14 C 255.516 253.707 255.163 253.49 254.709 253.49 C 254.249 253.49 253.576 253.73 252.689 254.21 C 250.729 255.277 248.323 257.55 245.469 261.03 C 242.609 264.51 240.229 268.293 238.329 272.38 C 236.423 276.467 235.469 280.033 235.469 283.08 ZM 295.748 257.68 C 295.748 255.167 295.065 253.91 293.698 253.91 C 291.872 253.91 288.378 259.153 283.218 269.64 C 280.885 274.387 279.255 277.973 278.328 280.4 C 277.402 282.827 276.708 284.533 276.248 285.52 C 275.795 286.513 275.345 287.263 274.898 287.77 C 274.458 288.277 273.965 288.53 273.418 288.53 C 272.872 288.53 272.548 288.397 272.448 288.13 C 272.342 287.863 272.288 287.38 272.288 286.68 C 272.288 285.987 273.312 279.997 275.358 268.71 C 277.398 257.423 278.578 251.487 278.898 250.9 C 279.218 250.32 279.505 249.947 279.758 249.78 C 280.012 249.613 280.468 249.53 281.128 249.53 C 281.788 249.53 282.302 249.783 282.668 250.29 C 283.035 250.797 283.218 251.247 283.218 251.64 C 283.218 252.033 283.168 252.423 283.068 252.81 C 282.888 253.49 282.622 254.34 282.268 255.36 C 281.048 258.833 279.882 263.757 278.768 270.13 L 277.968 274.74 C 278.548 273.52 279.208 272.053 279.948 270.34 C 280.682 268.627 281.772 266.17 283.218 262.97 C 284.665 259.777 286.278 256.92 288.058 254.4 C 290.345 251.1 292.478 249.45 294.458 249.45 C 297.938 249.45 299.678 252.257 299.678 257.87 C 299.678 259.977 299.378 262.603 298.778 265.75 C 298.185 268.903 297.525 272.347 296.798 276.08 C 296.078 279.807 295.678 282.89 295.598 285.33 L 295.138 287.43 C 295.138 287.983 295.058 288.383 294.898 288.63 C 294.732 288.87 294.235 288.99 293.408 288.99 C 292.582 288.99 291.985 288.837 291.618 288.53 C 291.252 288.223 291.132 287.677 291.258 286.89 L 295.068 264.12 C 295.522 261.3 295.748 259.153 295.748 257.68 ZM 322.331 236.12 C 323.824 236.12 324.571 236.87 324.571 238.37 C 324.571 240.557 323.811 241.79 322.291 242.07 C 321.858 242.143 321.388 242.18 320.881 242.18 C 320.374 242.18 319.868 241.927 319.361 241.42 C 318.848 240.913 318.591 240.26 318.591 239.46 C 318.591 238.66 318.988 237.903 319.781 237.19 C 320.568 236.477 321.418 236.12 322.331 236.12 Z M 316.961 253.91 L 316.961 253.15 C 316.961 252.79 316.771 251.927 316.391 250.56 C 316.391 249.927 316.604 249.35 317.031 248.83 C 317.464 248.303 317.991 248.04 318.611 248.04 C 319.238 248.04 319.754 248.437 320.161 249.23 C 320.568 250.017 320.771 250.88 320.771 251.82 C 320.771 252.753 319.578 258.363 317.191 268.65 C 314.804 278.93 313.611 284.343 313.611 284.89 C 313.611 285.437 313.864 285.71 314.371 285.71 C 314.698 285.71 315.168 285.387 315.781 284.74 C 316.388 284.093 316.908 283.77 317.341 283.77 C 318.174 283.77 318.591 284.297 318.591 285.35 C 318.591 286.403 317.804 287.323 316.231 288.11 C 314.658 288.897 313.518 289.29 312.811 289.29 C 311.031 289.29 310.141 287.87 310.141 285.03 C 310.141 284.443 310.261 283.787 310.501 283.06 C 310.741 282.34 310.994 281.34 311.261 280.06 C 311.528 278.773 311.911 277.027 312.411 274.82 C 312.904 272.613 313.411 270.327 313.931 267.96 C 314.451 265.6 315.084 262.74 315.831 259.38 C 316.584 256.013 316.961 254.19 316.961 253.91 ZM 347.953 282.13 C 348.839 282.13 349.283 282.6 349.283 283.54 C 349.283 284.633 347.949 285.867 345.283 287.24 C 342.616 288.607 340.396 289.29 338.623 289.29 C 336.843 289.29 335.509 289 334.623 288.42 C 333.736 287.833 333.013 287.02 332.453 285.98 C 331.359 283.947 330.813 281.497 330.813 278.63 C 330.813 273.55 331.576 268.763 333.103 264.27 C 334.623 259.777 336.653 256.05 339.193 253.09 C 341.733 250.13 344.476 248.65 347.423 248.65 C 348.996 248.65 350.233 249.307 351.133 250.62 C 352.033 251.927 352.483 253.467 352.483 255.24 C 352.483 258.567 351.613 261.387 349.873 263.7 C 348.133 266.007 345.993 267.897 343.453 269.37 C 340.919 270.843 337.999 272.24 334.693 273.56 L 334.543 279.16 C 334.543 283.527 335.863 285.71 338.503 285.71 C 339.929 285.71 341.423 285.297 342.983 284.47 C 344.543 283.65 345.666 283.053 346.353 282.68 C 347.039 282.313 347.573 282.13 347.953 282.13 Z M 348.903 255.4 C 348.903 253.367 348.053 252.35 346.353 252.35 C 344.826 252.35 343.036 253.72 340.983 256.46 C 338.923 259.2 337.223 262.82 335.883 267.32 C 335.549 268.407 335.356 269.23 335.303 269.79 C 336.323 269.23 337.366 268.697 338.433 268.19 C 339.499 267.683 340.539 267.15 341.553 266.59 C 343.886 265.297 345.696 263.78 346.983 262.04 C 348.263 260.3 348.903 258.087 348.903 255.4 Z" transform="matrix(1, 0, 0, 1, 0, 0)" style="fill: rgb(51, 51, 51); stroke-width: 45px; white-space: pre;"/>
</svg>