<?xml version="1.0" encoding="utf-8"?>
<svg viewBox="45.088 195.155 341.858 49.125" xmlns="http://www.w3.org/2000/svg">
  <path d="M 79.247 221.523 C 79.694 221.523 80.42 219.553 81.427 215.613 C 81.987 213.393 82.324 212.15 82.437 211.883 C 82.77 211.03 83.217 210.603 83.777 210.603 C 84.324 210.603 84.597 210.976 84.597 211.723 C 84.597 212.096 84.437 212.843 84.117 213.963 L 82.777 218.943 C 82.497 220.063 82.247 220.996 82.027 221.743 C 81.814 222.49 81.634 223.07 81.487 223.483 C 81.414 223.65 81.31 223.85 81.177 224.083 C 81.044 224.316 80.89 224.55 80.717 224.783 C 80.537 225.016 80.34 225.213 80.127 225.373 C 79.914 225.526 79.704 225.603 79.497 225.603 C 78.844 225.603 78.284 225.193 77.817 224.373 C 77.577 223.98 77.3 223.416 76.987 222.683 C 76.68 221.943 76.33 221.043 75.937 219.983 C 75.157 217.87 74.737 216.813 74.677 216.813 C 74.604 216.813 74.147 217.896 73.307 220.063 C 72.88 221.143 72.527 222.02 72.247 222.693 C 71.967 223.366 71.75 223.833 71.597 224.093 C 71.077 225.006 70.5 225.463 69.867 225.463 C 69.64 225.463 69.424 225.39 69.217 225.243 C 69.017 225.096 68.83 224.913 68.657 224.693 C 68.49 224.48 68.344 224.253 68.217 224.013 C 68.084 223.766 67.99 223.56 67.937 223.393 C 67.844 223.113 67.697 222.653 67.497 222.013 C 67.304 221.366 67.09 220.636 66.857 219.823 C 66.624 219.01 66.384 218.166 66.137 217.293 C 65.897 216.413 65.68 215.596 65.487 214.843 C 65.287 214.083 65.127 213.443 65.007 212.923 C 64.887 212.403 64.827 212.096 64.827 212.003 L 64.827 211.663 C 64.827 211.05 65.06 210.743 65.527 210.743 C 66.014 210.743 66.39 210.85 66.657 211.063 C 66.93 211.276 67.197 211.636 67.457 212.143 C 67.497 212.236 67.64 212.686 67.887 213.493 C 68.14 214.306 68.49 215.48 68.937 217.013 C 69.87 220.093 70.44 221.633 70.647 221.633 C 70.8 221.633 70.987 221.32 71.207 220.693 C 71.434 220.066 71.667 219.333 71.907 218.493 C 72.154 217.653 72.37 216.8 72.557 215.933 C 72.744 215.066 72.864 214.39 72.917 213.903 C 72.97 213.416 73.02 213 73.067 212.653 C 73.114 212.313 73.194 212.03 73.307 211.803 C 73.42 211.576 73.58 211.413 73.787 211.313 C 73.994 211.213 74.274 211.163 74.627 211.163 C 75.074 211.163 75.434 211.24 75.707 211.393 C 75.974 211.553 76.187 211.77 76.347 212.043 C 76.507 212.31 76.634 212.63 76.727 213.003 C 76.82 213.376 76.904 213.79 76.977 214.243 C 77.07 214.69 77.224 215.32 77.437 216.133 C 77.65 216.94 77.874 217.746 78.107 218.553 C 78.34 219.353 78.57 220.046 78.797 220.633 C 79.024 221.226 79.174 221.523 79.247 221.523 ZM 89.811 221.743 C 88.338 218.476 87.601 216.676 87.601 216.343 C 87.601 215.95 87.741 215.673 88.021 215.513 C 88.301 215.353 88.731 215.273 89.311 215.273 C 89.611 215.273 89.845 215.31 90.011 215.383 C 90.178 215.463 90.308 215.586 90.401 215.753 C 90.495 215.92 90.575 216.153 90.641 216.453 C 90.708 216.753 90.788 217.126 90.881 217.573 C 90.975 218.02 91.115 218.573 91.301 219.233 C 91.488 219.9 91.688 220.546 91.901 221.173 C 92.115 221.793 92.328 222.323 92.541 222.763 C 92.755 223.203 92.928 223.423 93.061 223.423 C 93.135 223.423 93.248 223.32 93.401 223.113 C 93.601 222.853 93.818 222.456 94.051 221.923 C 94.285 221.39 94.505 220.813 94.711 220.193 C 94.918 219.566 95.095 218.916 95.241 218.243 C 95.395 217.57 95.488 216.963 95.521 216.423 C 95.561 215.936 95.651 215.573 95.791 215.333 C 95.931 215.086 96.271 214.963 96.811 214.963 L 97.121 214.963 C 97.848 214.963 98.211 215.243 98.211 215.803 C 98.211 216.163 98.071 216.696 97.791 217.403 C 97.491 218.13 97.278 218.726 97.151 219.193 C 95.845 223.62 94.875 226.456 94.241 227.703 C 93.641 228.956 92.978 229.923 92.251 230.603 C 91.525 231.283 90.778 231.623 90.011 231.623 C 89.265 231.623 88.891 231.383 88.891 230.903 C 88.891 230.583 89.235 230.283 89.921 230.003 C 90.635 229.723 91.201 229.34 91.621 228.853 C 92.041 228.366 92.251 227.703 92.251 226.863 C 92.251 226.436 91.935 225.663 91.301 224.543 C 90.981 223.983 90.695 223.47 90.441 223.003 C 90.188 222.536 89.978 222.116 89.811 221.743 ZM 106.155 226.923 L 105.905 226.923 C 105.065 226.923 104.328 226.78 103.695 226.493 C 103.055 226.2 102.518 225.803 102.085 225.303 C 101.645 224.796 101.311 224.196 101.085 223.503 C 100.865 222.816 100.755 222.063 100.755 221.243 L 100.755 220.963 C 100.755 219.076 101.268 217.573 102.295 216.453 C 103.321 215.333 104.768 214.773 106.635 214.773 C 107.641 214.773 108.461 214.97 109.095 215.363 C 109.728 215.75 110.045 216.233 110.045 216.813 C 110.045 217.433 109.728 217.743 109.095 217.743 C 109.021 217.743 108.918 217.713 108.785 217.653 C 108.658 217.6 108.518 217.54 108.365 217.473 C 108.218 217.406 108.085 217.336 107.965 217.263 C 107.838 217.19 107.748 217.123 107.695 217.063 C 107.081 216.803 106.511 216.673 105.985 216.673 C 105.205 216.673 104.561 217.036 104.055 217.763 C 103.548 218.496 103.295 219.533 103.295 220.873 C 103.295 222.22 103.595 223.236 104.195 223.923 C 104.795 224.616 105.568 224.963 106.515 224.963 C 107.041 224.963 107.695 224.85 108.475 224.623 C 109.221 224.383 109.681 224.263 109.855 224.263 C 110.168 224.263 110.325 224.44 110.325 224.793 C 110.325 225.04 110.198 225.286 109.945 225.533 C 109.698 225.786 109.368 226.016 108.955 226.223 C 108.541 226.43 108.095 226.596 107.615 226.723 C 107.128 226.856 106.641 226.923 106.155 226.923 ZM 124.317 225.073 C 124.317 225.973 123.813 226.423 122.807 226.423 C 122.36 226.423 122.027 226.343 121.807 226.183 C 121.593 226.023 121.487 225.756 121.487 225.383 L 121.487 225.103 L 121.517 224.823 L 121.517 224.183 L 121.407 221.263 C 121.407 220.443 121.363 219.76 121.277 219.213 C 121.197 218.66 121.063 218.223 120.877 217.903 C 120.69 217.59 120.45 217.366 120.157 217.233 C 119.87 217.106 119.52 217.043 119.107 217.043 C 118.68 217.043 118.257 217.176 117.837 217.443 C 117.417 217.716 117.083 218.133 116.837 218.693 C 116.597 219.193 116.477 220.65 116.477 223.063 C 116.477 223.396 116.503 223.806 116.557 224.293 C 116.577 224.5 116.587 224.686 116.587 224.853 C 116.607 224.926 116.617 224.99 116.617 225.043 C 116.617 225.496 116.48 225.863 116.207 226.143 C 115.94 226.423 115.527 226.563 114.967 226.563 L 114.657 226.563 C 113.817 226.563 113.397 226.236 113.397 225.583 L 113.397 225.273 C 113.397 225.16 113.443 224.936 113.537 224.603 L 113.707 223.923 C 113.853 223.216 113.927 221.826 113.927 219.753 L 113.927 215.193 L 113.987 212.503 L 114.017 212.143 L 114.017 211.413 C 114.017 211.3 114.017 211.193 114.017 211.093 C 114.017 210.986 113.997 210.886 113.957 210.793 L 113.897 210.543 C 113.843 210.283 113.817 210.133 113.817 210.093 C 113.817 209.72 114.04 209.533 114.487 209.533 L 114.797 209.533 C 115.21 209.533 115.527 209.593 115.747 209.713 C 115.973 209.84 116.143 210.026 116.257 210.273 C 116.363 210.526 116.433 210.846 116.467 211.233 C 116.493 211.613 116.517 212.056 116.537 212.563 C 116.57 213.083 116.593 213.533 116.607 213.913 C 116.613 214.3 116.637 214.623 116.677 214.883 C 116.77 215.403 116.937 215.663 117.177 215.663 C 117.23 215.663 117.297 215.656 117.377 215.643 C 117.45 215.623 117.533 215.593 117.627 215.553 L 117.907 215.443 C 118.727 215.09 119.473 214.913 120.147 214.913 C 120.873 214.913 121.473 215.033 121.947 215.273 C 122.427 215.52 122.8 215.906 123.067 216.433 C 123.34 216.966 123.533 217.66 123.647 218.513 C 123.76 219.36 123.817 220.39 123.817 221.603 C 123.817 222.496 123.9 223.253 124.067 223.873 C 124.233 224.506 124.317 224.906 124.317 225.073 ZM 138.276 220.563 L 138.276 220.983 C 138.276 222.123 138.026 223.196 137.526 224.203 C 137.019 225.216 136.226 225.973 135.146 226.473 C 134.339 226.866 133.546 227.063 132.766 227.063 L 132.346 227.063 C 131.632 227.063 130.939 226.903 130.266 226.583 C 129.632 226.29 129.126 225.916 128.746 225.463 C 128.359 225.016 128.069 224.55 127.876 224.063 C 127.682 223.583 127.552 223.1 127.486 222.613 C 127.419 222.126 127.386 221.686 127.386 221.293 L 127.386 220.683 C 127.386 220.123 127.446 219.566 127.566 219.013 C 127.686 218.46 127.869 217.946 128.116 217.473 C 128.356 217 128.672 216.566 129.066 216.173 C 129.459 215.78 129.926 215.463 130.466 215.223 C 131.172 214.883 131.882 214.713 132.596 214.713 L 133.206 214.713 C 134.046 214.713 134.786 214.876 135.426 215.203 C 136.059 215.53 136.586 215.963 137.006 216.503 C 137.426 217.05 137.742 217.673 137.956 218.373 C 138.169 219.073 138.276 219.803 138.276 220.563 Z M 132.506 225.413 L 132.736 225.413 C 133.556 225.413 134.226 225.056 134.746 224.343 C 135.272 223.636 135.536 222.733 135.536 221.633 L 135.566 221.353 L 135.566 220.403 C 135.566 219.203 135.326 218.216 134.846 217.443 C 134.372 216.67 133.726 216.283 132.906 216.283 L 132.646 216.283 C 131.846 216.283 131.176 216.676 130.636 217.463 C 130.096 218.243 129.826 219.286 129.826 220.593 L 129.826 221.433 C 129.839 221.526 129.846 221.606 129.846 221.673 C 129.846 221.74 129.846 221.79 129.846 221.823 C 129.846 222.276 129.916 222.716 130.056 223.143 C 130.196 223.57 130.382 223.953 130.616 224.293 C 130.849 224.626 131.129 224.896 131.456 225.103 C 131.782 225.31 132.132 225.413 132.506 225.413 ZM 149.017 219.983 C 148.963 220.13 148.89 220.306 148.797 220.513 C 148.703 220.72 148.6 220.953 148.487 221.213 C 148.373 221.473 148.233 221.79 148.067 222.163 C 147.747 222.89 147.47 223.51 147.237 224.023 C 147.003 224.536 146.787 224.946 146.587 225.253 C 146.38 225.566 146.173 225.793 145.967 225.933 C 145.76 226.073 145.537 226.143 145.297 226.143 C 145.017 226.143 144.717 226.026 144.397 225.793 C 144.083 225.56 143.833 225.2 143.647 224.713 C 143.553 224.486 143.437 224.146 143.297 223.693 C 143.157 223.233 142.983 222.656 142.777 221.963 C 142.57 221.276 142.377 220.64 142.197 220.053 C 142.023 219.46 141.86 218.923 141.707 218.443 C 141.373 217.45 141.207 216.756 141.207 216.363 C 141.207 215.636 141.477 215.273 142.017 215.273 C 142.763 215.273 143.287 215.59 143.587 216.223 C 143.587 216.223 143.893 217.363 144.507 219.643 C 145.087 221.923 145.573 223.063 145.967 223.063 C 146.113 223.063 146.273 222.87 146.447 222.483 C 146.613 222.103 146.77 221.636 146.917 221.083 C 147.07 220.536 147.207 219.96 147.327 219.353 C 147.447 218.746 147.533 218.21 147.587 217.743 C 147.647 217.276 147.703 216.886 147.757 216.573 C 147.817 216.266 147.897 216.02 147.997 215.833 C 148.097 215.646 148.25 215.516 148.457 215.443 C 148.663 215.37 148.943 215.333 149.297 215.333 C 149.67 215.333 149.963 215.403 150.177 215.543 C 150.397 215.683 150.57 215.87 150.697 216.103 C 150.83 216.336 150.923 216.606 150.977 216.913 C 151.037 217.22 151.093 217.543 151.147 217.883 C 151.2 218.216 151.29 218.673 151.417 219.253 C 151.537 219.833 151.677 220.403 151.837 220.963 C 151.99 221.523 152.157 222.006 152.337 222.413 C 152.517 222.826 152.68 223.033 152.827 223.033 C 152.973 223.033 153.14 222.836 153.327 222.443 C 153.513 222.05 153.697 221.58 153.877 221.033 C 154.057 220.48 154.223 219.896 154.377 219.283 C 154.537 218.663 154.663 218.13 154.757 217.683 C 154.963 216.803 155.15 216.176 155.317 215.803 C 155.483 215.43 155.83 215.243 156.357 215.243 C 156.877 215.243 157.137 215.59 157.137 216.283 C 157.137 216.416 157.1 216.63 157.027 216.923 C 156.953 217.223 156.84 217.606 156.687 218.073 C 156.54 218.56 156.373 219.12 156.187 219.753 C 156 220.386 155.787 221.116 155.547 221.943 C 155.3 222.763 155.097 223.416 154.937 223.903 C 154.783 224.383 154.66 224.716 154.567 224.903 C 154.393 225.276 154.153 225.58 153.847 225.813 C 153.54 226.046 153.257 226.163 152.997 226.163 C 152.51 226.163 152.107 225.923 151.787 225.443 C 151.413 224.896 150.893 223.86 150.227 222.333 C 149.533 220.766 149.13 219.983 149.017 219.983 ZM 170.173 225.863 C 170.173 226.403 169.633 226.673 168.553 226.673 C 168.46 226.673 168.327 226.65 168.153 226.603 C 167.987 226.556 167.773 226.476 167.513 226.363 C 167.027 226.176 166.71 226.083 166.563 226.083 C 166.41 226.083 165.97 226.223 165.243 226.503 C 164.517 226.783 163.863 226.923 163.283 226.923 L 163.003 226.923 C 162.577 226.923 162.167 226.85 161.773 226.703 C 161.38 226.55 161.04 226.333 160.753 226.053 C 160.46 225.773 160.227 225.436 160.053 225.043 C 159.873 224.656 159.783 224.21 159.783 223.703 C 159.783 221.65 161.073 220.39 163.653 219.923 C 165.333 219.59 166.19 219.413 166.223 219.393 C 166.617 219.186 166.813 218.823 166.813 218.303 C 166.813 217.756 166.647 217.313 166.313 216.973 C 165.973 216.626 165.513 216.453 164.933 216.453 C 164.34 216.453 163.67 216.64 162.923 217.013 C 162.137 217.406 161.603 217.603 161.323 217.603 C 160.803 217.603 160.543 217.246 160.543 216.533 C 160.543 216.313 160.653 216.09 160.873 215.863 C 161.1 215.636 161.4 215.436 161.773 215.263 C 162.147 215.083 162.577 214.936 163.063 214.823 C 163.55 214.716 164.053 214.663 164.573 214.663 L 165.193 214.663 C 165.973 214.663 166.667 214.81 167.273 215.103 C 167.88 215.403 168.343 215.806 168.663 216.313 C 169.13 217 169.363 218.633 169.363 221.213 C 169.363 222.666 169.39 223.563 169.443 223.903 C 169.503 224.276 169.643 224.63 169.863 224.963 C 170.07 225.296 170.173 225.596 170.173 225.863 Z M 164.093 225.303 L 164.463 225.303 C 165.23 225.303 165.83 225.05 166.263 224.543 C 166.703 224.036 166.923 223.31 166.923 222.363 L 166.923 221.883 C 166.923 221.283 166.673 220.983 166.173 220.983 L 165.803 220.983 L 164.853 221.073 C 164.107 221.073 163.497 221.276 163.023 221.683 C 162.543 222.096 162.303 222.593 162.303 223.173 L 162.303 223.593 C 162.303 224.02 162.457 224.41 162.763 224.763 C 163.077 225.123 163.52 225.303 164.093 225.303 ZM 174.841 226.443 L 174.811 226.443 C 173.897 226.443 173.441 226.126 173.441 225.493 C 173.441 225.233 173.514 224.86 173.661 224.373 C 173.754 224.153 173.821 223.933 173.861 223.713 C 173.894 223.5 173.927 223.263 173.961 223.003 C 173.987 222.743 174.001 222.443 174.001 222.103 C 174.001 221.77 174.001 221.36 174.001 220.873 L 174.001 217.993 C 174.021 217.786 174.031 217.613 174.031 217.473 C 174.031 217.333 174.031 217.216 174.031 217.123 L 173.911 215.863 C 173.911 215.583 174.164 215.443 174.671 215.443 C 175.177 215.443 175.691 215.583 176.211 215.863 C 176.751 216.143 177.077 216.283 177.191 216.283 C 177.324 216.283 177.567 216.2 177.921 216.033 C 178.274 215.866 178.684 215.69 179.151 215.503 C 179.617 215.316 180.104 215.223 180.611 215.223 L 180.941 215.223 C 181.541 215.223 182.074 215.386 182.541 215.713 C 183.007 216.04 183.351 216.483 183.571 217.043 C 183.664 217.336 183.754 217.746 183.841 218.273 C 183.927 218.793 183.987 219.446 184.021 220.233 L 184.081 221.543 C 184.114 221.916 184.141 222.333 184.161 222.793 C 184.181 223.253 184.284 223.723 184.471 224.203 C 184.657 224.69 184.751 225.026 184.751 225.213 C 184.751 225.926 184.211 226.283 183.131 226.283 C 182.664 226.283 182.321 226.19 182.101 226.003 C 181.887 225.816 181.781 225.496 181.781 225.043 L 181.811 224.603 C 181.811 223.016 181.751 221.693 181.631 220.633 C 181.511 219.58 181.347 218.773 181.141 218.213 C 180.787 217.34 180.161 216.903 179.261 216.903 C 178.834 216.903 178.421 217.003 178.021 217.203 C 177.614 217.41 177.301 217.756 177.081 218.243 C 176.667 219.063 176.461 220.686 176.461 223.113 L 176.571 225.303 C 176.571 225.636 176.404 225.91 176.071 226.123 C 175.737 226.336 175.327 226.443 174.841 226.443 ZM 189.945 226.783 L 189.335 226.783 C 188.995 226.783 188.705 226.686 188.465 226.493 C 188.219 226.293 188.095 226.073 188.095 225.833 C 188.095 225.666 188.172 225.34 188.325 224.853 C 188.452 224.46 188.515 224.076 188.515 223.703 L 188.575 222.783 L 188.575 218.043 C 188.535 217.576 188.469 217.213 188.375 216.953 L 188.265 216.703 C 188.099 216.276 188.015 216.053 188.015 216.033 L 188.015 215.783 C 188.015 215.316 188.502 215.083 189.475 215.083 L 189.895 215.083 C 190.189 215.083 190.412 215.11 190.565 215.163 C 190.712 215.216 190.819 215.336 190.885 215.523 C 190.952 215.71 190.989 215.99 190.995 216.363 C 191.009 216.736 191.015 217.243 191.015 217.883 L 191.015 220.623 L 191.095 222.333 C 191.095 223.286 191.292 224.096 191.685 224.763 C 191.832 225.063 191.905 225.363 191.905 225.663 C 191.905 225.996 191.719 226.266 191.345 226.473 C 190.972 226.68 190.505 226.783 189.945 226.783 Z M 189.755 209.903 L 190.175 209.903 C 190.509 209.903 190.802 210.003 191.055 210.203 C 191.309 210.41 191.435 210.72 191.435 211.133 L 191.435 211.413 C 191.435 211.746 191.325 212.043 191.105 212.303 C 190.892 212.57 190.609 212.703 190.255 212.703 L 190.035 212.723 L 189.635 212.723 C 189.562 212.71 189.442 212.703 189.275 212.703 C 189.129 212.703 188.955 212.603 188.755 212.403 C 188.562 212.21 188.465 211.99 188.465 211.743 L 188.405 211.353 L 188.405 211.303 L 188.465 210.903 C 188.465 210.716 188.569 210.503 188.775 210.263 C 188.975 210.023 189.302 209.903 189.755 209.903 ZM 200.522 226.953 L 199.992 226.953 C 199.172 226.953 198.435 226.806 197.782 226.513 C 197.129 226.226 196.579 225.826 196.132 225.313 C 195.679 224.8 195.335 224.203 195.102 223.523 C 194.869 222.843 194.752 222.1 194.752 221.293 L 194.752 220.763 C 194.752 219.923 194.892 219.14 195.172 218.413 C 195.452 217.686 195.849 217.056 196.362 216.523 C 196.875 215.99 197.482 215.573 198.182 215.273 C 198.882 214.973 199.652 214.823 200.492 214.823 L 200.752 214.823 C 201.872 214.823 202.805 215.16 203.552 215.833 C 203.959 216.226 204.269 216.7 204.482 217.253 C 204.702 217.8 204.812 218.296 204.812 218.743 C 204.812 219.23 204.755 219.613 204.642 219.893 C 204.529 220.173 204.329 220.396 204.042 220.563 C 203.749 220.736 203.359 220.863 202.872 220.943 C 202.392 221.03 201.779 221.12 201.032 221.213 C 200.285 221.306 199.709 221.376 199.302 221.423 C 198.902 221.47 198.655 221.503 198.562 221.523 C 197.875 221.71 197.532 222.026 197.532 222.473 C 197.532 223.253 197.839 223.87 198.452 224.323 C 199.065 224.77 199.859 224.993 200.832 224.993 C 201.225 224.993 201.822 224.88 202.622 224.653 C 203.055 224.54 203.382 224.453 203.602 224.393 C 203.829 224.326 203.959 224.293 203.992 224.293 C 204.405 224.293 204.612 224.49 204.612 224.883 C 204.612 225.123 204.485 225.363 204.232 225.603 C 203.979 225.85 203.659 226.07 203.272 226.263 C 202.879 226.463 202.439 226.626 201.952 226.753 C 201.465 226.886 200.989 226.953 200.522 226.953 Z M 200.752 219.723 L 201.002 219.723 C 201.129 219.723 201.279 219.716 201.452 219.703 C 201.619 219.683 201.782 219.64 201.942 219.573 C 202.095 219.506 202.229 219.416 202.342 219.303 C 202.455 219.196 202.512 219.056 202.512 218.883 L 202.512 218.383 C 202.512 217.803 202.299 217.323 201.872 216.943 C 201.439 216.556 200.972 216.363 200.472 216.363 L 200.162 216.363 C 199.809 216.363 199.462 216.45 199.122 216.623 C 198.789 216.79 198.495 217.013 198.242 217.293 C 197.989 217.573 197.789 217.886 197.642 218.233 C 197.489 218.573 197.412 218.93 197.412 219.303 L 197.412 219.533 C 197.412 219.813 197.675 219.953 198.202 219.953 L 198.482 219.953 L 198.532 219.923 L 200.472 219.783 C 200.505 219.763 200.545 219.753 200.592 219.753 C 200.639 219.753 200.692 219.743 200.752 219.723 ZM 216.69 231.823 C 215.757 231.823 215.29 231.486 215.29 230.813 C 215.29 230.606 215.347 230.316 215.46 229.943 C 215.587 229.59 215.67 229.263 215.71 228.963 C 215.73 228.836 215.753 228.55 215.78 228.103 C 215.807 227.65 215.83 227.116 215.85 226.503 C 215.87 225.89 215.89 225.226 215.91 224.513 C 215.923 223.806 215.93 223.116 215.93 222.443 L 215.93 218.693 C 215.93 217.833 215.867 217.18 215.74 216.733 C 215.587 216.246 215.51 215.956 215.51 215.863 C 215.51 215.436 216.017 215.223 217.03 215.223 C 217.137 215.223 217.33 215.25 217.61 215.303 L 217.98 215.383 C 218.187 215.423 218.35 215.453 218.47 215.473 C 218.59 215.493 218.697 215.503 218.79 215.503 C 218.883 215.503 219.027 215.47 219.22 215.403 C 219.42 215.336 219.677 215.246 219.99 215.133 C 220.643 214.913 221.223 214.803 221.73 214.803 L 222.29 214.803 C 222.87 214.803 223.433 214.956 223.98 215.263 C 224.533 215.57 224.97 215.956 225.29 216.423 C 225.977 217.356 226.32 218.503 226.32 219.863 L 226.32 220.453 C 226.32 221.313 226.2 222.113 225.96 222.853 C 225.713 223.586 225.353 224.223 224.88 224.763 C 224.407 225.31 223.82 225.746 223.12 226.073 C 222.42 226.4 221.61 226.58 220.69 226.613 C 219.943 226.653 219.383 226.78 219.01 226.993 C 218.637 227.206 218.45 227.613 218.45 228.213 C 218.45 228.306 218.47 228.436 218.51 228.603 C 218.55 228.77 218.587 228.966 218.62 229.193 C 218.733 229.64 218.79 229.976 218.79 230.203 C 218.79 230.683 218.593 231.073 218.2 231.373 C 217.807 231.673 217.303 231.823 216.69 231.823 Z M 223.69 220.903 L 223.69 220.233 C 223.69 219.053 223.46 218.113 223 217.413 C 222.547 216.713 221.927 216.363 221.14 216.363 L 220.92 216.363 C 220.547 216.363 220.153 216.473 219.74 216.693 C 219.333 216.906 218.99 217.226 218.71 217.653 C 218.443 218.086 218.31 219.076 218.31 220.623 L 218.31 221.993 C 218.31 223.186 218.467 224.016 218.78 224.483 C 219.087 224.95 219.66 225.183 220.5 225.183 L 220.72 225.183 C 221.58 225.183 222.29 224.803 222.85 224.043 C 223.41 223.276 223.69 222.23 223.69 220.903 ZM 235.189 217.293 C 234.442 217.293 233.859 217.666 233.439 218.413 C 233.019 219.16 232.809 220.306 232.809 221.853 C 232.809 222.193 232.819 222.473 232.839 222.693 C 232.852 222.92 232.876 223.12 232.909 223.293 C 232.936 223.473 232.972 223.643 233.019 223.803 C 233.066 223.963 233.116 224.153 233.169 224.373 C 233.209 224.58 233.246 224.776 233.279 224.963 C 233.319 225.15 233.339 225.316 233.339 225.463 C 233.339 225.783 233.152 226.07 232.779 226.323 C 232.406 226.576 231.919 226.703 231.319 226.703 L 231.129 226.673 L 230.899 226.673 C 230.526 226.673 230.209 226.566 229.949 226.353 C 229.689 226.133 229.559 225.893 229.559 225.633 L 229.559 225.443 C 229.559 225.363 229.642 225.09 229.809 224.623 C 229.962 224.143 230.046 223.686 230.059 223.253 C 230.079 222.826 230.089 222.24 230.089 221.493 L 230.089 219.503 L 230.059 218.863 L 230.059 217.993 C 230.059 217.6 229.986 217.196 229.839 216.783 C 229.692 216.47 229.619 216.23 229.619 216.063 C 229.619 215.576 230.039 215.333 230.879 215.333 C 231.732 215.333 232.339 215.566 232.699 216.033 C 232.826 216.16 232.946 216.223 233.059 216.223 C 233.172 216.223 233.379 216.123 233.679 215.923 C 234.499 215.376 235.169 215.103 235.689 215.103 L 235.889 215.103 C 236.376 215.103 236.742 215.213 236.989 215.433 C 237.242 215.646 237.369 215.93 237.369 216.283 C 237.369 217.01 236.979 217.373 236.199 217.373 C 235.859 217.32 235.522 217.293 235.189 217.293 ZM 248.956 215.583 C 248.956 216.123 248.012 217.7 246.126 220.313 C 244.239 222.966 243.296 224.403 243.296 224.623 C 243.296 224.923 243.762 225.073 244.696 225.073 C 245.629 225.073 246.386 224.99 246.966 224.823 L 248.566 224.373 C 249.012 224.373 249.236 224.673 249.236 225.273 L 249.236 225.553 C 249.236 226.353 248.469 226.753 246.936 226.753 L 244.136 226.753 C 242.982 226.753 242.096 226.75 241.476 226.743 C 240.862 226.73 240.509 226.716 240.416 226.703 C 239.982 226.61 239.766 226.413 239.766 226.113 L 239.766 225.863 C 239.766 225.396 240.729 223.836 242.656 221.183 C 244.556 218.516 245.506 217.07 245.506 216.843 C 245.506 216.603 244.909 216.483 243.716 216.483 C 243.136 216.483 242.519 216.566 241.866 216.733 C 241.232 216.9 240.832 216.983 240.666 216.983 C 240.179 216.983 239.936 216.723 239.936 216.203 C 239.936 215.656 240.049 215.273 240.276 215.053 C 240.496 214.826 240.962 214.713 241.676 214.713 L 241.986 214.743 L 245.456 214.743 L 246.996 214.803 C 247.889 214.803 248.429 214.856 248.616 214.963 C 248.842 215.096 248.956 215.303 248.956 215.583 ZM 257.566 226.953 L 257.036 226.953 C 256.216 226.953 255.479 226.806 254.826 226.513 C 254.172 226.226 253.622 225.826 253.176 225.313 C 252.722 224.8 252.379 224.203 252.146 223.523 C 251.912 222.843 251.796 222.1 251.796 221.293 L 251.796 220.763 C 251.796 219.923 251.936 219.14 252.216 218.413 C 252.496 217.686 252.892 217.056 253.406 216.523 C 253.919 215.99 254.526 215.573 255.226 215.273 C 255.926 214.973 256.696 214.823 257.536 214.823 L 257.796 214.823 C 258.916 214.823 259.849 215.16 260.596 215.833 C 261.002 216.226 261.312 216.7 261.526 217.253 C 261.746 217.8 261.856 218.296 261.856 218.743 C 261.856 219.23 261.799 219.613 261.686 219.893 C 261.572 220.173 261.372 220.396 261.086 220.563 C 260.792 220.736 260.402 220.863 259.916 220.943 C 259.436 221.03 258.822 221.12 258.076 221.213 C 257.329 221.306 256.752 221.376 256.346 221.423 C 255.946 221.47 255.699 221.503 255.606 221.523 C 254.919 221.71 254.576 222.026 254.576 222.473 C 254.576 223.253 254.882 223.87 255.496 224.323 C 256.109 224.77 256.902 224.993 257.876 224.993 C 258.269 224.993 258.866 224.88 259.666 224.653 C 260.099 224.54 260.426 224.453 260.646 224.393 C 260.872 224.326 261.002 224.293 261.036 224.293 C 261.449 224.293 261.656 224.49 261.656 224.883 C 261.656 225.123 261.529 225.363 261.276 225.603 C 261.022 225.85 260.702 226.07 260.316 226.263 C 259.922 226.463 259.482 226.626 258.996 226.753 C 258.509 226.886 258.032 226.953 257.566 226.953 Z M 257.796 219.723 L 258.046 219.723 C 258.172 219.723 258.322 219.716 258.496 219.703 C 258.662 219.683 258.826 219.64 258.986 219.573 C 259.139 219.506 259.272 219.416 259.386 219.303 C 259.499 219.196 259.556 219.056 259.556 218.883 L 259.556 218.383 C 259.556 217.803 259.342 217.323 258.916 216.943 C 258.482 216.556 258.016 216.363 257.516 216.363 L 257.206 216.363 C 256.852 216.363 256.506 216.45 256.166 216.623 C 255.832 216.79 255.539 217.013 255.286 217.293 C 255.032 217.573 254.832 217.886 254.686 218.233 C 254.532 218.573 254.456 218.93 254.456 219.303 L 254.456 219.533 C 254.456 219.813 254.719 219.953 255.246 219.953 L 255.526 219.953 L 255.576 219.923 L 257.516 219.783 C 257.549 219.763 257.589 219.753 257.636 219.753 C 257.682 219.753 257.736 219.743 257.796 219.723 ZM 274.079 215.583 C 274.079 216.123 273.136 217.7 271.249 220.313 C 269.363 222.966 268.419 224.403 268.419 224.623 C 268.419 224.923 268.886 225.073 269.819 225.073 C 270.753 225.073 271.509 224.99 272.089 224.823 L 273.689 224.373 C 274.136 224.373 274.359 224.673 274.359 225.273 L 274.359 225.553 C 274.359 226.353 273.593 226.753 272.059 226.753 L 269.259 226.753 C 268.106 226.753 267.219 226.75 266.599 226.743 C 265.986 226.73 265.633 226.716 265.539 226.703 C 265.106 226.61 264.889 226.413 264.889 226.113 L 264.889 225.863 C 264.889 225.396 265.853 223.836 267.779 221.183 C 269.679 218.516 270.629 217.07 270.629 216.843 C 270.629 216.603 270.033 216.483 268.839 216.483 C 268.259 216.483 267.643 216.566 266.989 216.733 C 266.356 216.9 265.956 216.983 265.789 216.983 C 265.303 216.983 265.059 216.723 265.059 216.203 C 265.059 215.656 265.173 215.273 265.399 215.053 C 265.619 214.826 266.086 214.713 266.799 214.713 L 267.109 214.743 L 270.579 214.743 L 272.119 214.803 C 273.013 214.803 273.553 214.856 273.739 214.963 C 273.966 215.096 274.079 215.303 274.079 215.583 ZM 289.684 226.923 L 289.434 226.923 C 288.594 226.923 287.857 226.78 287.224 226.493 C 286.584 226.2 286.047 225.803 285.614 225.303 C 285.174 224.796 284.84 224.196 284.614 223.503 C 284.394 222.816 284.284 222.063 284.284 221.243 L 284.284 220.963 C 284.284 219.076 284.797 217.573 285.824 216.453 C 286.85 215.333 288.297 214.773 290.164 214.773 C 291.17 214.773 291.99 214.97 292.624 215.363 C 293.257 215.75 293.574 216.233 293.574 216.813 C 293.574 217.433 293.257 217.743 292.624 217.743 C 292.55 217.743 292.447 217.713 292.314 217.653 C 292.187 217.6 292.047 217.54 291.894 217.473 C 291.747 217.406 291.614 217.336 291.494 217.263 C 291.367 217.19 291.277 217.123 291.224 217.063 C 290.61 216.803 290.04 216.673 289.514 216.673 C 288.734 216.673 288.09 217.036 287.584 217.763 C 287.077 218.496 286.824 219.533 286.824 220.873 C 286.824 222.22 287.124 223.236 287.724 223.923 C 288.324 224.616 289.097 224.963 290.044 224.963 C 290.57 224.963 291.224 224.85 292.004 224.623 C 292.75 224.383 293.21 224.263 293.384 224.263 C 293.697 224.263 293.854 224.44 293.854 224.793 C 293.854 225.04 293.727 225.286 293.474 225.533 C 293.227 225.786 292.897 226.016 292.484 226.223 C 292.07 226.43 291.624 226.596 291.144 226.723 C 290.657 226.856 290.17 226.923 289.684 226.923 ZM 305.776 215.583 C 305.776 216.123 304.832 217.7 302.946 220.313 C 301.059 222.966 300.116 224.403 300.116 224.623 C 300.116 224.923 300.582 225.073 301.516 225.073 C 302.449 225.073 303.206 224.99 303.786 224.823 L 305.386 224.373 C 305.832 224.373 306.056 224.673 306.056 225.273 L 306.056 225.553 C 306.056 226.353 305.289 226.753 303.756 226.753 L 300.956 226.753 C 299.802 226.753 298.916 226.75 298.296 226.743 C 297.682 226.73 297.329 226.716 297.236 226.703 C 296.802 226.61 296.586 226.413 296.586 226.113 L 296.586 225.863 C 296.586 225.396 297.549 223.836 299.476 221.183 C 301.376 218.516 302.326 217.07 302.326 216.843 C 302.326 216.603 301.729 216.483 300.536 216.483 C 299.956 216.483 299.339 216.566 298.686 216.733 C 298.052 216.9 297.652 216.983 297.486 216.983 C 296.999 216.983 296.756 216.723 296.756 216.203 C 296.756 215.656 296.869 215.273 297.096 215.053 C 297.316 214.826 297.782 214.713 298.496 214.713 L 298.806 214.743 L 302.276 214.743 L 303.816 214.803 C 304.709 214.803 305.249 214.856 305.436 214.963 C 305.662 215.096 305.776 215.303 305.776 215.583 ZM 311.026 221.743 C 309.552 218.476 308.816 216.676 308.816 216.343 C 308.816 215.95 308.956 215.673 309.236 215.513 C 309.516 215.353 309.946 215.273 310.526 215.273 C 310.826 215.273 311.059 215.31 311.226 215.383 C 311.392 215.463 311.522 215.586 311.616 215.753 C 311.709 215.92 311.789 216.153 311.856 216.453 C 311.922 216.753 312.002 217.126 312.096 217.573 C 312.189 218.02 312.329 218.573 312.516 219.233 C 312.702 219.9 312.902 220.546 313.116 221.173 C 313.329 221.793 313.542 222.323 313.756 222.763 C 313.969 223.203 314.142 223.423 314.276 223.423 C 314.349 223.423 314.462 223.32 314.616 223.113 C 314.816 222.853 315.032 222.456 315.266 221.923 C 315.499 221.39 315.719 220.813 315.926 220.193 C 316.132 219.566 316.309 218.916 316.456 218.243 C 316.609 217.57 316.702 216.963 316.736 216.423 C 316.776 215.936 316.866 215.573 317.006 215.333 C 317.146 215.086 317.486 214.963 318.026 214.963 L 318.336 214.963 C 319.062 214.963 319.426 215.243 319.426 215.803 C 319.426 216.163 319.286 216.696 319.006 217.403 C 318.706 218.13 318.492 218.726 318.366 219.193 C 317.059 223.62 316.089 226.456 315.456 227.703 C 314.856 228.956 314.192 229.923 313.466 230.603 C 312.739 231.283 311.992 231.623 311.226 231.623 C 310.479 231.623 310.106 231.383 310.106 230.903 C 310.106 230.583 310.449 230.283 311.136 230.003 C 311.849 229.723 312.416 229.34 312.836 228.853 C 313.256 228.366 313.466 227.703 313.466 226.863 C 313.466 226.436 313.149 225.663 312.516 224.543 C 312.196 223.983 311.909 223.47 311.656 223.003 C 311.402 222.536 311.192 222.116 311.026 221.743 ZM 326.979 226.753 L 326.529 226.753 C 325.356 226.753 324.542 226.306 324.089 225.413 C 323.642 224.513 323.419 223.13 323.419 221.263 C 323.419 219.436 323.316 218.17 323.109 217.463 C 323.016 217.183 322.812 216.883 322.499 216.563 C 322.179 216.243 322.019 215.963 322.019 215.723 L 322.019 215.553 C 322.019 215.366 322.206 215.143 322.579 214.883 C 322.766 214.75 322.912 214.653 323.019 214.593 C 323.119 214.526 323.196 214.44 323.249 214.333 C 323.309 214.233 323.362 214.1 323.409 213.933 C 323.456 213.766 323.516 213.513 323.589 213.173 C 323.776 212.5 323.966 212.03 324.159 211.763 C 324.359 211.49 324.626 211.353 324.959 211.353 C 325.299 211.353 325.532 211.453 325.659 211.653 C 325.792 211.846 325.932 212.243 326.079 212.843 C 326.152 213.136 326.222 213.383 326.289 213.583 C 326.356 213.776 326.446 213.94 326.559 214.073 C 326.672 214.2 326.822 214.316 327.009 214.423 C 327.196 214.523 327.456 214.63 327.789 214.743 C 328.442 214.97 328.769 215.25 328.769 215.583 C 328.769 215.883 328.422 216.163 327.729 216.423 C 327.076 216.65 326.649 216.95 326.449 217.323 C 326.109 217.99 325.939 219.193 325.939 220.933 C 325.939 222.686 326.089 223.74 326.389 224.093 C 326.689 224.486 327.176 224.73 327.849 224.823 C 328.516 224.896 328.849 225.15 328.849 225.583 C 328.849 225.896 328.659 226.17 328.279 226.403 C 327.899 226.636 327.466 226.753 326.979 226.753 ZM 341.92 225.863 C 341.92 226.403 341.38 226.673 340.3 226.673 C 340.207 226.673 340.074 226.65 339.9 226.603 C 339.734 226.556 339.52 226.476 339.26 226.363 C 338.774 226.176 338.457 226.083 338.31 226.083 C 338.157 226.083 337.717 226.223 336.99 226.503 C 336.264 226.783 335.61 226.923 335.03 226.923 L 334.75 226.923 C 334.324 226.923 333.914 226.85 333.52 226.703 C 333.127 226.55 332.787 226.333 332.5 226.053 C 332.207 225.773 331.974 225.436 331.8 225.043 C 331.62 224.656 331.53 224.21 331.53 223.703 C 331.53 221.65 332.82 220.39 335.4 219.923 C 337.08 219.59 337.937 219.413 337.97 219.393 C 338.364 219.186 338.56 218.823 338.56 218.303 C 338.56 217.756 338.394 217.313 338.06 216.973 C 337.72 216.626 337.26 216.453 336.68 216.453 C 336.087 216.453 335.417 216.64 334.67 217.013 C 333.884 217.406 333.35 217.603 333.07 217.603 C 332.55 217.603 332.29 217.246 332.29 216.533 C 332.29 216.313 332.4 216.09 332.62 215.863 C 332.847 215.636 333.147 215.436 333.52 215.263 C 333.894 215.083 334.324 214.936 334.81 214.823 C 335.297 214.716 335.8 214.663 336.32 214.663 L 336.94 214.663 C 337.72 214.663 338.414 214.81 339.02 215.103 C 339.627 215.403 340.09 215.806 340.41 216.313 C 340.877 217 341.11 218.633 341.11 221.213 C 341.11 222.666 341.137 223.563 341.19 223.903 C 341.25 224.276 341.39 224.63 341.61 224.963 C 341.817 225.296 341.92 225.596 341.92 225.863 Z M 335.84 225.303 L 336.21 225.303 C 336.977 225.303 337.577 225.05 338.01 224.543 C 338.45 224.036 338.67 223.31 338.67 222.363 L 338.67 221.883 C 338.67 221.283 338.42 220.983 337.92 220.983 L 337.55 220.983 L 336.6 221.073 C 335.854 221.073 335.244 221.276 334.77 221.683 C 334.29 222.096 334.05 222.593 334.05 223.173 L 334.05 223.593 C 334.05 224.02 334.204 224.41 334.51 224.763 C 334.824 225.123 335.267 225.303 335.84 225.303 ZM 346.588 226.443 L 346.558 226.443 C 345.644 226.443 345.188 226.126 345.188 225.493 C 345.188 225.233 345.261 224.86 345.408 224.373 C 345.501 224.153 345.568 223.933 345.608 223.713 C 345.641 223.5 345.674 223.263 345.708 223.003 C 345.734 222.743 345.748 222.443 345.748 222.103 C 345.748 221.77 345.748 221.36 345.748 220.873 L 345.748 217.993 C 345.768 217.786 345.778 217.613 345.778 217.473 C 345.778 217.333 345.778 217.216 345.778 217.123 L 345.658 215.863 C 345.658 215.583 345.911 215.443 346.418 215.443 C 346.924 215.443 347.438 215.583 347.958 215.863 C 348.498 216.143 348.824 216.283 348.938 216.283 C 349.071 216.283 349.314 216.2 349.668 216.033 C 350.021 215.866 350.431 215.69 350.898 215.503 C 351.364 215.316 351.851 215.223 352.358 215.223 L 352.688 215.223 C 353.288 215.223 353.821 215.386 354.288 215.713 C 354.754 216.04 355.098 216.483 355.318 217.043 C 355.411 217.336 355.501 217.746 355.588 218.273 C 355.674 218.793 355.734 219.446 355.768 220.233 L 355.828 221.543 C 355.861 221.916 355.888 222.333 355.908 222.793 C 355.928 223.253 356.031 223.723 356.218 224.203 C 356.404 224.69 356.498 225.026 356.498 225.213 C 356.498 225.926 355.958 226.283 354.878 226.283 C 354.411 226.283 354.068 226.19 353.848 226.003 C 353.634 225.816 353.528 225.496 353.528 225.043 L 353.558 224.603 C 353.558 223.016 353.498 221.693 353.378 220.633 C 353.258 219.58 353.094 218.773 352.888 218.213 C 352.534 217.34 351.908 216.903 351.008 216.903 C 350.581 216.903 350.168 217.003 349.768 217.203 C 349.361 217.41 349.048 217.756 348.828 218.243 C 348.414 219.063 348.208 220.686 348.208 223.113 L 348.318 225.303 C 348.318 225.636 348.151 225.91 347.818 226.123 C 347.484 226.336 347.074 226.443 346.588 226.443 ZM 361.693 226.783 L 361.083 226.783 C 360.743 226.783 360.453 226.686 360.213 226.493 C 359.966 226.293 359.843 226.073 359.843 225.833 C 359.843 225.666 359.919 225.34 360.073 224.853 C 360.199 224.46 360.263 224.076 360.263 223.703 L 360.323 222.783 L 360.323 218.043 C 360.283 217.576 360.216 217.213 360.123 216.953 L 360.013 216.703 C 359.846 216.276 359.763 216.053 359.763 216.033 L 359.763 215.783 C 359.763 215.316 360.249 215.083 361.223 215.083 L 361.643 215.083 C 361.936 215.083 362.159 215.11 362.313 215.163 C 362.459 215.216 362.566 215.336 362.633 215.523 C 362.699 215.71 362.736 215.99 362.743 216.363 C 362.756 216.736 362.763 217.243 362.763 217.883 L 362.763 220.623 L 362.843 222.333 C 362.843 223.286 363.039 224.096 363.433 224.763 C 363.579 225.063 363.653 225.363 363.653 225.663 C 363.653 225.996 363.466 226.266 363.093 226.473 C 362.719 226.68 362.253 226.783 361.693 226.783 Z M 361.503 209.903 L 361.923 209.903 C 362.256 209.903 362.549 210.003 362.803 210.203 C 363.056 210.41 363.183 210.72 363.183 211.133 L 363.183 211.413 C 363.183 211.746 363.073 212.043 362.853 212.303 C 362.639 212.57 362.356 212.703 362.003 212.703 L 361.783 212.723 L 361.383 212.723 C 361.309 212.71 361.189 212.703 361.023 212.703 C 360.876 212.703 360.703 212.603 360.503 212.403 C 360.309 212.21 360.213 211.99 360.213 211.743 L 360.153 211.353 L 360.153 211.303 L 360.213 210.903 C 360.213 210.716 360.316 210.503 360.523 210.263 C 360.723 210.023 361.049 209.903 361.503 209.903 ZM 372.269 226.953 L 371.739 226.953 C 370.919 226.953 370.182 226.806 369.529 226.513 C 368.876 226.226 368.326 225.826 367.879 225.313 C 367.426 224.8 367.082 224.203 366.849 223.523 C 366.616 222.843 366.499 222.1 366.499 221.293 L 366.499 220.763 C 366.499 219.923 366.639 219.14 366.919 218.413 C 367.199 217.686 367.596 217.056 368.109 216.523 C 368.622 215.99 369.229 215.573 369.929 215.273 C 370.629 214.973 371.399 214.823 372.239 214.823 L 372.499 214.823 C 373.619 214.823 374.552 215.16 375.299 215.833 C 375.706 216.226 376.016 216.7 376.229 217.253 C 376.449 217.8 376.559 218.296 376.559 218.743 C 376.559 219.23 376.502 219.613 376.389 219.893 C 376.276 220.173 376.076 220.396 375.789 220.563 C 375.496 220.736 375.106 220.863 374.619 220.943 C 374.139 221.03 373.526 221.12 372.779 221.213 C 372.032 221.306 371.456 221.376 371.049 221.423 C 370.649 221.47 370.402 221.503 370.309 221.523 C 369.622 221.71 369.279 222.026 369.279 222.473 C 369.279 223.253 369.586 223.87 370.199 224.323 C 370.812 224.77 371.606 224.993 372.579 224.993 C 372.972 224.993 373.569 224.88 374.369 224.653 C 374.802 224.54 375.129 224.453 375.349 224.393 C 375.576 224.326 375.706 224.293 375.739 224.293 C 376.152 224.293 376.359 224.49 376.359 224.883 C 376.359 225.123 376.232 225.363 375.979 225.603 C 375.726 225.85 375.406 226.07 375.019 226.263 C 374.626 226.463 374.186 226.626 373.699 226.753 C 373.212 226.886 372.736 226.953 372.269 226.953 Z M 372.499 219.723 L 372.749 219.723 C 372.876 219.723 373.026 219.716 373.199 219.703 C 373.366 219.683 373.529 219.64 373.689 219.573 C 373.842 219.506 373.976 219.416 374.089 219.303 C 374.202 219.196 374.259 219.056 374.259 218.883 L 374.259 218.383 C 374.259 217.803 374.046 217.323 373.619 216.943 C 373.186 216.556 372.719 216.363 372.219 216.363 L 371.909 216.363 C 371.556 216.363 371.209 216.45 370.869 216.623 C 370.536 216.79 370.242 217.013 369.989 217.293 C 369.736 217.573 369.536 217.886 369.389 218.233 C 369.236 218.573 369.159 218.93 369.159 219.303 L 369.159 219.533 C 369.159 219.813 369.422 219.953 369.949 219.953 L 370.229 219.953 L 370.279 219.923 L 372.219 219.783 C 372.252 219.763 372.292 219.753 372.339 219.753 C 372.386 219.753 372.439 219.743 372.499 219.723 Z" transform="matrix(1, 0, 0, 1, 0, 0)" style="fill: rgb(51, 51, 51); white-space: pre;"/>
</svg>