<?xml version="1.0" encoding="utf-8"?>
<svg viewBox="49.799 199.865 119.785 78.062" xmlns="http://www.w3.org/2000/svg">
  <path d="M 73.537 223.403 C 73.824 223.403 74.29 222.136 74.937 219.603 C 75.297 218.176 75.514 217.376 75.587 217.203 C 75.8 216.656 76.087 216.383 76.447 216.383 C 76.8 216.383 76.977 216.623 76.977 217.103 C 76.977 217.343 76.874 217.823 76.667 218.543 L 75.807 221.743 C 75.627 222.463 75.467 223.063 75.327 223.543 C 75.187 224.023 75.07 224.396 74.977 224.663 C 74.93 224.77 74.864 224.896 74.777 225.043 C 74.69 225.196 74.59 225.346 74.477 225.493 C 74.364 225.646 74.24 225.773 74.107 225.873 C 73.967 225.973 73.83 226.023 73.697 226.023 C 73.277 226.023 72.917 225.76 72.617 225.233 C 72.464 224.98 72.287 224.616 72.087 224.143 C 71.887 223.67 71.66 223.093 71.407 222.413 C 70.907 221.053 70.637 220.373 70.597 220.373 C 70.55 220.373 70.257 221.07 69.717 222.463 C 69.444 223.156 69.217 223.72 69.037 224.153 C 68.857 224.586 68.717 224.886 68.617 225.053 C 68.284 225.64 67.914 225.933 67.507 225.933 C 67.36 225.933 67.22 225.886 67.087 225.793 C 66.96 225.7 66.84 225.583 66.727 225.443 C 66.62 225.303 66.527 225.156 66.447 225.003 C 66.36 224.843 66.3 224.71 66.267 224.603 C 66.207 224.423 66.114 224.126 65.987 223.713 C 65.86 223.3 65.72 222.833 65.567 222.313 C 65.42 221.786 65.267 221.243 65.107 220.683 C 64.954 220.116 64.814 219.59 64.687 219.103 C 64.56 218.616 64.46 218.206 64.387 217.873 C 64.307 217.54 64.267 217.343 64.267 217.283 L 64.267 217.063 C 64.267 216.67 64.417 216.473 64.717 216.473 C 65.03 216.473 65.274 216.54 65.447 216.673 C 65.62 216.813 65.79 217.046 65.957 217.373 C 65.984 217.433 66.077 217.723 66.237 218.243 C 66.397 218.763 66.62 219.516 66.907 220.503 C 67.507 222.483 67.874 223.473 68.007 223.473 C 68.107 223.473 68.227 223.27 68.367 222.863 C 68.514 222.463 68.664 221.993 68.817 221.453 C 68.977 220.913 69.117 220.363 69.237 219.803 C 69.357 219.25 69.434 218.816 69.467 218.503 C 69.5 218.19 69.534 217.923 69.567 217.703 C 69.594 217.483 69.644 217.3 69.717 217.153 C 69.79 217.006 69.894 216.9 70.027 216.833 C 70.16 216.773 70.34 216.743 70.567 216.743 C 70.854 216.743 71.084 216.793 71.257 216.893 C 71.43 216.993 71.57 217.13 71.677 217.303 C 71.777 217.476 71.857 217.683 71.917 217.923 C 71.977 218.163 72.03 218.43 72.077 218.723 C 72.137 219.01 72.237 219.413 72.377 219.933 C 72.51 220.453 72.654 220.973 72.807 221.493 C 72.954 222.006 73.1 222.453 73.247 222.833 C 73.394 223.213 73.49 223.403 73.537 223.403 ZM 80.503 223.543 C 79.556 221.443 79.083 220.286 79.083 220.073 C 79.083 219.82 79.173 219.64 79.353 219.533 C 79.533 219.433 79.81 219.383 80.183 219.383 C 80.376 219.383 80.526 219.406 80.633 219.453 C 80.74 219.506 80.823 219.586 80.883 219.693 C 80.943 219.8 80.993 219.95 81.033 220.143 C 81.08 220.336 81.133 220.576 81.193 220.863 C 81.253 221.15 81.343 221.506 81.463 221.933 C 81.583 222.36 81.71 222.773 81.843 223.173 C 81.983 223.573 82.123 223.916 82.263 224.203 C 82.396 224.483 82.506 224.623 82.593 224.623 C 82.64 224.623 82.713 224.556 82.813 224.423 C 82.94 224.256 83.08 224.003 83.233 223.663 C 83.38 223.316 83.52 222.943 83.653 222.543 C 83.786 222.143 83.9 221.726 83.993 221.293 C 84.093 220.86 84.153 220.47 84.173 220.123 C 84.2 219.81 84.26 219.576 84.353 219.423 C 84.44 219.263 84.656 219.183 85.003 219.183 L 85.203 219.183 C 85.67 219.183 85.903 219.363 85.903 219.723 C 85.903 219.956 85.813 220.3 85.633 220.753 C 85.44 221.22 85.303 221.603 85.223 221.903 C 84.383 224.75 83.76 226.573 83.353 227.373 C 82.966 228.18 82.54 228.803 82.073 229.243 C 81.606 229.676 81.126 229.893 80.633 229.893 C 80.153 229.893 79.913 229.74 79.913 229.433 C 79.913 229.226 80.133 229.033 80.573 228.853 C 81.033 228.673 81.396 228.426 81.663 228.113 C 81.936 227.8 82.073 227.373 82.073 226.833 C 82.073 226.56 81.87 226.063 81.463 225.343 C 81.256 224.983 81.073 224.653 80.913 224.353 C 80.746 224.053 80.61 223.783 80.503 223.543 ZM 91.188 226.873 L 91.028 226.873 C 90.488 226.873 90.014 226.78 89.608 226.593 C 89.194 226.406 88.848 226.153 88.568 225.833 C 88.288 225.506 88.074 225.12 87.928 224.673 C 87.788 224.233 87.718 223.75 87.718 223.223 L 87.718 223.043 C 87.718 221.83 88.048 220.863 88.708 220.143 C 89.368 219.423 90.298 219.063 91.498 219.063 C 92.144 219.063 92.671 219.19 93.078 219.443 C 93.484 219.69 93.688 220 93.688 220.373 C 93.688 220.773 93.484 220.973 93.078 220.973 C 93.031 220.973 92.964 220.953 92.878 220.913 C 92.798 220.88 92.708 220.84 92.608 220.793 C 92.514 220.753 92.428 220.71 92.348 220.663 C 92.268 220.616 92.211 220.573 92.178 220.533 C 91.784 220.366 91.418 220.283 91.078 220.283 C 90.578 220.283 90.164 220.516 89.838 220.983 C 89.511 221.456 89.348 222.123 89.348 222.983 C 89.348 223.85 89.541 224.503 89.928 224.943 C 90.314 225.39 90.811 225.613 91.418 225.613 C 91.758 225.613 92.178 225.54 92.678 225.393 C 93.158 225.24 93.454 225.163 93.568 225.163 C 93.768 225.163 93.868 225.276 93.868 225.503 C 93.868 225.663 93.788 225.823 93.628 225.983 C 93.468 226.143 93.254 226.29 92.988 226.423 C 92.721 226.556 92.434 226.663 92.128 226.743 C 91.814 226.83 91.501 226.873 91.188 226.873 ZM 103.041 225.683 C 103.041 226.263 102.717 226.553 102.071 226.553 C 101.784 226.553 101.571 226.5 101.431 226.393 C 101.291 226.293 101.221 226.123 101.221 225.883 L 101.221 225.703 L 101.241 225.523 L 101.241 225.113 L 101.171 223.233 C 101.171 222.706 101.144 222.266 101.091 221.913 C 101.037 221.56 100.951 221.28 100.831 221.073 C 100.711 220.873 100.557 220.73 100.371 220.643 C 100.184 220.563 99.957 220.523 99.691 220.523 C 99.417 220.523 99.144 220.61 98.871 220.783 C 98.604 220.956 98.391 221.223 98.231 221.583 C 98.077 221.903 98.001 222.84 98.001 224.393 C 98.001 224.606 98.017 224.87 98.051 225.183 C 98.064 225.316 98.071 225.436 98.071 225.543 C 98.084 225.59 98.091 225.63 98.091 225.663 C 98.091 225.956 98.004 226.193 97.831 226.373 C 97.657 226.553 97.391 226.643 97.031 226.643 L 96.831 226.643 C 96.291 226.643 96.021 226.433 96.021 226.013 L 96.021 225.813 C 96.021 225.74 96.051 225.596 96.111 225.383 L 96.221 224.943 C 96.314 224.49 96.361 223.596 96.361 222.263 L 96.361 219.333 L 96.401 217.603 L 96.421 217.373 L 96.421 216.903 C 96.421 216.83 96.421 216.76 96.421 216.693 C 96.421 216.626 96.407 216.563 96.381 216.503 L 96.341 216.343 C 96.307 216.176 96.291 216.08 96.291 216.053 C 96.291 215.813 96.434 215.693 96.721 215.693 L 96.921 215.693 C 97.187 215.693 97.391 215.733 97.531 215.813 C 97.677 215.893 97.787 216.013 97.861 216.173 C 97.927 216.333 97.971 216.536 97.991 216.783 C 98.011 217.03 98.027 217.316 98.041 217.643 C 98.061 217.976 98.074 218.266 98.081 218.513 C 98.087 218.76 98.104 218.966 98.131 219.133 C 98.191 219.466 98.297 219.633 98.451 219.633 C 98.484 219.633 98.527 219.63 98.581 219.623 C 98.627 219.61 98.681 219.59 98.741 219.563 L 98.921 219.493 C 99.447 219.266 99.927 219.153 100.361 219.153 C 100.827 219.153 101.214 219.23 101.521 219.383 C 101.827 219.543 102.067 219.793 102.241 220.133 C 102.414 220.473 102.537 220.916 102.611 221.463 C 102.684 222.01 102.721 222.673 102.721 223.453 C 102.721 224.026 102.774 224.513 102.881 224.913 C 102.987 225.32 103.041 225.576 103.041 225.683 ZM 112.191 222.783 L 112.191 223.053 C 112.191 223.786 112.031 224.476 111.711 225.123 C 111.384 225.776 110.874 226.263 110.181 226.583 C 109.661 226.836 109.151 226.963 108.651 226.963 L 108.381 226.963 C 107.921 226.963 107.474 226.86 107.041 226.653 C 106.634 226.466 106.307 226.226 106.061 225.933 C 105.814 225.646 105.631 225.346 105.511 225.033 C 105.384 224.726 105.297 224.416 105.251 224.103 C 105.211 223.79 105.191 223.506 105.191 223.253 L 105.191 222.863 C 105.191 222.503 105.231 222.143 105.311 221.783 C 105.384 221.43 105.501 221.1 105.661 220.793 C 105.814 220.493 106.017 220.216 106.271 219.963 C 106.524 219.71 106.824 219.506 107.171 219.353 C 107.624 219.133 108.081 219.023 108.541 219.023 L 108.931 219.023 C 109.471 219.023 109.947 219.13 110.361 219.343 C 110.767 219.55 111.104 219.826 111.371 220.173 C 111.644 220.526 111.851 220.926 111.991 221.373 C 112.124 221.826 112.191 222.296 112.191 222.783 Z M 108.481 225.903 L 108.631 225.903 C 109.157 225.903 109.587 225.673 109.921 225.213 C 110.261 224.76 110.431 224.18 110.431 223.473 L 110.451 223.293 L 110.451 222.683 C 110.451 221.91 110.297 221.276 109.991 220.783 C 109.684 220.283 109.267 220.033 108.741 220.033 L 108.571 220.033 C 108.057 220.033 107.627 220.286 107.281 220.793 C 106.934 221.293 106.761 221.963 106.761 222.803 L 106.761 223.343 C 106.767 223.403 106.771 223.453 106.771 223.493 C 106.771 223.54 106.771 223.573 106.771 223.593 C 106.771 223.886 106.817 224.17 106.911 224.443 C 106.997 224.716 107.117 224.963 107.271 225.183 C 107.417 225.396 107.597 225.57 107.811 225.703 C 108.017 225.836 108.241 225.903 108.481 225.903 ZM 119.273 222.413 C 119.24 222.506 119.193 222.62 119.133 222.753 C 119.073 222.886 119.006 223.036 118.933 223.203 C 118.86 223.37 118.77 223.573 118.663 223.813 C 118.456 224.28 118.28 224.68 118.133 225.013 C 117.98 225.34 117.84 225.603 117.713 225.803 C 117.58 226.003 117.446 226.146 117.313 226.233 C 117.18 226.326 117.036 226.373 116.883 226.373 C 116.703 226.373 116.51 226.296 116.303 226.143 C 116.103 225.996 115.943 225.766 115.823 225.453 C 115.763 225.306 115.686 225.086 115.593 224.793 C 115.506 224.5 115.396 224.13 115.263 223.683 C 115.13 223.243 115.006 222.833 114.893 222.453 C 114.78 222.073 114.673 221.73 114.573 221.423 C 114.36 220.783 114.253 220.336 114.253 220.083 C 114.253 219.616 114.426 219.383 114.773 219.383 C 115.253 219.383 115.59 219.586 115.783 219.993 C 115.783 219.993 115.98 220.726 116.373 222.193 C 116.746 223.66 117.06 224.393 117.313 224.393 C 117.406 224.393 117.51 224.27 117.623 224.023 C 117.73 223.776 117.83 223.476 117.923 223.123 C 118.023 222.77 118.11 222.396 118.183 222.003 C 118.263 221.616 118.32 221.273 118.353 220.973 C 118.393 220.673 118.43 220.423 118.463 220.223 C 118.503 220.023 118.556 219.863 118.623 219.743 C 118.683 219.623 118.78 219.54 118.913 219.493 C 119.046 219.446 119.226 219.423 119.453 219.423 C 119.693 219.423 119.883 219.466 120.023 219.553 C 120.163 219.646 120.273 219.766 120.353 219.913 C 120.44 220.066 120.5 220.24 120.533 220.433 C 120.573 220.633 120.61 220.843 120.643 221.063 C 120.676 221.276 120.733 221.57 120.813 221.943 C 120.893 222.316 120.983 222.683 121.083 223.043 C 121.183 223.403 121.293 223.713 121.413 223.973 C 121.526 224.24 121.63 224.373 121.723 224.373 C 121.816 224.373 121.923 224.246 122.043 223.993 C 122.163 223.74 122.283 223.436 122.403 223.083 C 122.516 222.73 122.623 222.356 122.723 221.963 C 122.823 221.563 122.903 221.22 122.963 220.933 C 123.096 220.366 123.216 219.963 123.323 219.723 C 123.43 219.483 123.653 219.363 123.993 219.363 C 124.326 219.363 124.493 219.586 124.493 220.033 C 124.493 220.12 124.47 220.256 124.423 220.443 C 124.376 220.636 124.303 220.883 124.203 221.183 C 124.11 221.496 124.003 221.856 123.883 222.263 C 123.763 222.67 123.626 223.14 123.473 223.673 C 123.313 224.2 123.183 224.62 123.083 224.933 C 122.983 225.24 122.903 225.453 122.843 225.573 C 122.73 225.813 122.576 226.01 122.383 226.163 C 122.183 226.31 122 226.383 121.833 226.383 C 121.52 226.383 121.26 226.23 121.053 225.923 C 120.813 225.57 120.48 224.903 120.053 223.923 C 119.606 222.916 119.346 222.413 119.273 222.413 ZM 133.051 226.193 C 133.051 226.54 132.704 226.713 132.011 226.713 C 131.951 226.713 131.864 226.696 131.751 226.663 C 131.644 226.636 131.508 226.586 131.341 226.513 C 131.028 226.393 130.824 226.333 130.731 226.333 C 130.631 226.333 130.348 226.423 129.881 226.603 C 129.414 226.783 128.994 226.873 128.621 226.873 L 128.441 226.873 C 128.168 226.873 127.904 226.826 127.651 226.733 C 127.398 226.633 127.178 226.493 126.991 226.313 C 126.804 226.133 126.654 225.916 126.541 225.663 C 126.428 225.416 126.371 225.13 126.371 224.803 C 126.371 223.483 127.201 222.673 128.861 222.373 C 129.941 222.16 130.491 222.046 130.511 222.033 C 130.764 221.9 130.891 221.666 130.891 221.333 C 130.891 220.98 130.784 220.693 130.571 220.473 C 130.351 220.253 130.054 220.143 129.681 220.143 C 129.301 220.143 128.871 220.263 128.391 220.503 C 127.884 220.756 127.541 220.883 127.361 220.883 C 127.028 220.883 126.861 220.653 126.861 220.193 C 126.861 220.053 126.931 219.91 127.071 219.763 C 127.218 219.616 127.411 219.486 127.651 219.373 C 127.891 219.26 128.168 219.166 128.481 219.093 C 128.794 219.026 129.118 218.993 129.451 218.993 L 129.851 218.993 C 130.351 218.993 130.798 219.086 131.191 219.273 C 131.578 219.466 131.874 219.726 132.081 220.053 C 132.381 220.493 132.531 221.543 132.531 223.203 C 132.531 224.136 132.548 224.713 132.581 224.933 C 132.621 225.173 132.711 225.4 132.851 225.613 C 132.984 225.826 133.051 226.02 133.051 226.193 Z M 129.141 225.833 L 129.381 225.833 C 129.874 225.833 130.261 225.67 130.541 225.343 C 130.821 225.016 130.961 224.55 130.961 223.943 L 130.961 223.633 C 130.961 223.246 130.801 223.053 130.481 223.053 L 130.241 223.053 L 129.631 223.113 C 129.151 223.113 128.758 223.243 128.451 223.503 C 128.144 223.77 127.991 224.09 127.991 224.463 L 127.991 224.733 C 127.991 225.006 128.091 225.256 128.291 225.483 C 128.491 225.716 128.774 225.833 129.141 225.833 ZM 136.229 226.563 L 136.209 226.563 C 135.623 226.563 135.329 226.36 135.329 225.953 C 135.329 225.786 135.376 225.546 135.469 225.233 C 135.529 225.093 135.573 224.953 135.599 224.813 C 135.619 224.673 135.639 224.52 135.659 224.353 C 135.679 224.186 135.689 223.993 135.689 223.773 C 135.689 223.56 135.689 223.296 135.689 222.983 L 135.689 221.133 C 135.703 221 135.709 220.886 135.709 220.793 C 135.709 220.706 135.709 220.633 135.709 220.573 L 135.629 219.763 C 135.629 219.583 135.793 219.493 136.119 219.493 C 136.446 219.493 136.776 219.583 137.109 219.763 C 137.456 219.943 137.666 220.033 137.739 220.033 C 137.826 220.033 137.983 219.98 138.209 219.873 C 138.436 219.766 138.699 219.653 138.999 219.533 C 139.299 219.413 139.613 219.353 139.939 219.353 L 140.149 219.353 C 140.536 219.353 140.879 219.456 141.179 219.663 C 141.479 219.876 141.699 220.163 141.839 220.523 C 141.899 220.71 141.959 220.973 142.019 221.313 C 142.073 221.646 142.109 222.066 142.129 222.573 L 142.169 223.413 C 142.189 223.653 142.206 223.92 142.219 224.213 C 142.233 224.513 142.299 224.816 142.419 225.123 C 142.539 225.436 142.599 225.653 142.599 225.773 C 142.599 226.233 142.253 226.463 141.559 226.463 C 141.259 226.463 141.039 226.403 140.899 226.283 C 140.759 226.163 140.689 225.956 140.689 225.663 L 140.709 225.383 C 140.709 224.363 140.669 223.513 140.589 222.833 C 140.516 222.153 140.413 221.633 140.279 221.273 C 140.053 220.713 139.649 220.433 139.069 220.433 C 138.796 220.433 138.529 220.496 138.269 220.623 C 138.009 220.756 137.809 220.98 137.669 221.293 C 137.403 221.82 137.269 222.863 137.269 224.423 L 137.339 225.833 C 137.339 226.046 137.233 226.223 137.019 226.363 C 136.806 226.496 136.543 226.563 136.229 226.563 ZM 146.115 226.783 L 145.725 226.783 C 145.505 226.783 145.319 226.72 145.165 226.593 C 145.005 226.466 144.925 226.326 144.925 226.173 C 144.925 226.066 144.975 225.856 145.075 225.543 C 145.155 225.29 145.195 225.043 145.195 224.803 L 145.235 224.213 L 145.235 221.163 C 145.209 220.863 145.165 220.63 145.105 220.463 L 145.035 220.303 C 144.929 220.03 144.875 219.886 144.875 219.873 L 144.875 219.713 C 144.875 219.413 145.189 219.263 145.815 219.263 L 146.085 219.263 C 146.272 219.263 146.415 219.28 146.515 219.313 C 146.609 219.346 146.679 219.423 146.725 219.543 C 146.765 219.663 146.789 219.843 146.795 220.083 C 146.802 220.323 146.805 220.65 146.805 221.063 L 146.805 222.823 L 146.855 223.923 C 146.855 224.536 146.982 225.056 147.235 225.483 C 147.329 225.676 147.375 225.87 147.375 226.063 C 147.375 226.276 147.255 226.45 147.015 226.583 C 146.775 226.716 146.475 226.783 146.115 226.783 Z M 145.995 215.933 L 146.265 215.933 C 146.479 215.933 146.665 215.996 146.825 216.123 C 146.992 216.256 147.075 216.456 147.075 216.723 L 147.075 216.903 C 147.075 217.116 147.005 217.306 146.865 217.473 C 146.725 217.646 146.542 217.733 146.315 217.733 L 146.175 217.743 L 145.915 217.743 C 145.869 217.736 145.792 217.733 145.685 217.733 C 145.592 217.733 145.482 217.67 145.355 217.543 C 145.229 217.416 145.165 217.273 145.165 217.113 L 145.125 216.863 L 145.125 216.833 L 145.165 216.573 C 145.165 216.453 145.232 216.316 145.365 216.163 C 145.492 216.01 145.702 215.933 145.995 215.933 ZM 153.092 226.893 L 152.752 226.893 C 152.226 226.893 151.752 226.8 151.332 226.613 C 150.912 226.426 150.559 226.166 150.272 225.833 C 149.979 225.506 149.759 225.123 149.612 224.683 C 149.459 224.25 149.382 223.773 149.382 223.253 L 149.382 222.913 C 149.382 222.373 149.472 221.87 149.652 221.403 C 149.832 220.936 150.089 220.53 150.422 220.183 C 150.749 219.843 151.139 219.576 151.592 219.383 C 152.039 219.19 152.532 219.093 153.072 219.093 L 153.242 219.093 C 153.962 219.093 154.562 219.31 155.042 219.743 C 155.302 219.996 155.502 220.3 155.642 220.653 C 155.782 221.006 155.852 221.326 155.852 221.613 C 155.852 221.926 155.816 222.173 155.742 222.353 C 155.669 222.533 155.539 222.676 155.352 222.783 C 155.166 222.896 154.916 222.98 154.602 223.033 C 154.296 223.086 153.902 223.143 153.422 223.203 C 152.942 223.263 152.572 223.306 152.312 223.333 C 152.052 223.366 151.892 223.39 151.832 223.403 C 151.392 223.523 151.172 223.726 151.172 224.013 C 151.172 224.513 151.369 224.91 151.762 225.203 C 152.156 225.49 152.666 225.633 153.292 225.633 C 153.546 225.633 153.929 225.56 154.442 225.413 C 154.722 225.34 154.932 225.283 155.072 225.243 C 155.219 225.203 155.302 225.183 155.322 225.183 C 155.589 225.183 155.722 225.31 155.722 225.563 C 155.722 225.716 155.642 225.87 155.482 226.023 C 155.316 226.183 155.109 226.326 154.862 226.453 C 154.609 226.58 154.326 226.683 154.012 226.763 C 153.699 226.85 153.392 226.893 153.092 226.893 Z M 153.242 222.243 L 153.402 222.243 C 153.482 222.243 153.579 222.24 153.692 222.233 C 153.799 222.22 153.902 222.19 154.002 222.143 C 154.102 222.103 154.189 222.046 154.262 221.973 C 154.336 221.906 154.372 221.816 154.372 221.703 L 154.372 221.383 C 154.372 221.01 154.236 220.7 153.962 220.453 C 153.682 220.206 153.382 220.083 153.062 220.083 L 152.862 220.083 C 152.636 220.083 152.412 220.14 152.192 220.253 C 151.979 220.36 151.792 220.503 151.632 220.683 C 151.466 220.863 151.336 221.063 151.242 221.283 C 151.142 221.503 151.092 221.733 151.092 221.973 L 151.092 222.123 C 151.092 222.303 151.262 222.393 151.602 222.393 L 151.782 222.393 L 151.812 222.373 L 153.062 222.283 C 153.082 222.27 153.109 222.263 153.142 222.263 C 153.169 222.263 153.202 222.256 153.242 222.243 Z" transform="matrix(1, 0, 0, 1, 0, 0)" style="fill: rgb(51, 51, 51); white-space: pre;"/>
  <path d="M 89.732 248.023 C 89.132 248.023 88.832 247.806 88.832 247.373 C 88.832 247.24 88.869 247.053 88.942 246.813 C 89.022 246.586 89.076 246.376 89.102 246.183 C 89.116 246.103 89.132 245.92 89.152 245.633 C 89.166 245.34 89.179 244.996 89.192 244.603 C 89.206 244.21 89.219 243.783 89.232 243.323 C 89.239 242.87 89.242 242.426 89.242 241.993 L 89.242 239.583 C 89.242 239.03 89.202 238.61 89.122 238.323 C 89.022 238.01 88.972 237.823 88.972 237.763 C 88.972 237.49 89.299 237.353 89.952 237.353 C 90.019 237.353 90.142 237.37 90.322 237.403 L 90.562 237.453 C 90.696 237.48 90.799 237.5 90.872 237.513 C 90.952 237.526 91.022 237.533 91.082 237.533 C 91.142 237.533 91.236 237.51 91.362 237.463 C 91.489 237.423 91.652 237.366 91.852 237.293 C 92.272 237.153 92.646 237.083 92.972 237.083 L 93.332 237.083 C 93.706 237.083 94.069 237.18 94.422 237.373 C 94.776 237.573 95.056 237.823 95.262 238.123 C 95.702 238.723 95.922 239.46 95.922 240.333 L 95.922 240.713 C 95.922 241.266 95.846 241.78 95.692 242.253 C 95.532 242.726 95.302 243.136 95.002 243.483 C 94.696 243.836 94.316 244.116 93.862 244.323 C 93.416 244.536 92.896 244.653 92.302 244.673 C 91.822 244.7 91.462 244.783 91.222 244.923 C 90.982 245.056 90.862 245.316 90.862 245.703 C 90.862 245.763 90.876 245.846 90.902 245.953 C 90.929 246.06 90.952 246.186 90.972 246.333 C 91.046 246.62 91.082 246.836 91.082 246.983 C 91.082 247.29 90.956 247.54 90.702 247.733 C 90.449 247.926 90.126 248.023 89.732 248.023 Z M 94.232 241.003 L 94.232 240.573 C 94.232 239.813 94.086 239.21 93.792 238.763 C 93.499 238.31 93.099 238.083 92.592 238.083 L 92.452 238.083 C 92.212 238.083 91.959 238.153 91.692 238.293 C 91.432 238.433 91.212 238.64 91.032 238.913 C 90.859 239.193 90.772 239.83 90.772 240.823 L 90.772 241.703 C 90.772 242.47 90.872 243.003 91.072 243.303 C 91.272 243.603 91.642 243.753 92.182 243.753 L 92.322 243.753 C 92.876 243.753 93.332 243.51 93.692 243.023 C 94.052 242.53 94.232 241.856 94.232 241.003 ZM 101.803 238.683 C 101.323 238.683 100.946 238.923 100.673 239.403 C 100.406 239.883 100.273 240.62 100.273 241.613 C 100.273 241.833 100.279 242.013 100.293 242.153 C 100.299 242.3 100.313 242.43 100.333 242.543 C 100.353 242.656 100.376 242.763 100.403 242.863 C 100.436 242.97 100.469 243.093 100.503 243.233 C 100.529 243.366 100.553 243.493 100.573 243.613 C 100.599 243.733 100.613 243.84 100.613 243.933 C 100.613 244.14 100.493 244.323 100.253 244.483 C 100.013 244.65 99.699 244.733 99.313 244.733 L 99.193 244.713 L 99.043 244.713 C 98.803 244.713 98.599 244.643 98.433 244.503 C 98.266 244.363 98.183 244.21 98.183 244.043 L 98.183 243.923 C 98.183 243.87 98.236 243.693 98.343 243.393 C 98.443 243.086 98.496 242.793 98.503 242.513 C 98.516 242.24 98.523 241.863 98.523 241.383 L 98.523 240.103 L 98.503 239.693 L 98.503 239.133 C 98.503 238.88 98.456 238.62 98.363 238.353 C 98.269 238.153 98.223 238 98.223 237.893 C 98.223 237.58 98.493 237.423 99.033 237.423 C 99.579 237.423 99.969 237.573 100.203 237.873 C 100.283 237.953 100.359 237.993 100.433 237.993 C 100.506 237.993 100.639 237.93 100.833 237.803 C 101.359 237.45 101.789 237.273 102.123 237.273 L 102.253 237.273 C 102.566 237.273 102.803 237.343 102.963 237.483 C 103.123 237.623 103.203 237.806 103.203 238.033 C 103.203 238.5 102.953 238.733 102.453 238.733 C 102.233 238.7 102.016 238.683 101.803 238.683 ZM 110.83 237.583 C 110.83 237.93 110.223 238.943 109.01 240.623 C 107.797 242.33 107.19 243.253 107.19 243.393 C 107.19 243.586 107.49 243.683 108.09 243.683 C 108.69 243.683 109.177 243.63 109.55 243.523 L 110.58 243.233 C 110.867 243.233 111.01 243.426 111.01 243.813 L 111.01 243.993 C 111.01 244.506 110.517 244.763 109.53 244.763 L 107.73 244.763 C 106.99 244.763 106.42 244.76 106.02 244.753 C 105.627 244.746 105.4 244.74 105.34 244.733 C 105.06 244.673 104.92 244.546 104.92 244.353 L 104.92 244.193 C 104.92 243.893 105.54 242.89 106.78 241.183 C 108 239.47 108.61 238.54 108.61 238.393 C 108.61 238.24 108.227 238.163 107.46 238.163 C 107.087 238.163 106.69 238.216 106.27 238.323 C 105.863 238.43 105.607 238.483 105.5 238.483 C 105.187 238.483 105.03 238.316 105.03 237.983 C 105.03 237.63 105.103 237.383 105.25 237.243 C 105.39 237.096 105.69 237.023 106.15 237.023 L 106.35 237.043 L 108.58 237.043 L 109.57 237.083 C 110.143 237.083 110.49 237.116 110.61 237.183 C 110.757 237.27 110.83 237.403 110.83 237.583 ZM 116.541 244.893 L 116.201 244.893 C 115.674 244.893 115.201 244.8 114.781 244.613 C 114.361 244.426 114.008 244.166 113.721 243.833 C 113.428 243.506 113.208 243.123 113.061 242.683 C 112.908 242.25 112.831 241.773 112.831 241.253 L 112.831 240.913 C 112.831 240.373 112.921 239.87 113.101 239.403 C 113.281 238.936 113.538 238.53 113.871 238.183 C 114.198 237.843 114.588 237.576 115.041 237.383 C 115.488 237.19 115.981 237.093 116.521 237.093 L 116.691 237.093 C 117.411 237.093 118.011 237.31 118.491 237.743 C 118.751 237.996 118.951 238.3 119.091 238.653 C 119.231 239.006 119.301 239.326 119.301 239.613 C 119.301 239.926 119.264 240.173 119.191 240.353 C 119.118 240.533 118.988 240.676 118.801 240.783 C 118.614 240.896 118.364 240.98 118.051 241.033 C 117.744 241.086 117.351 241.143 116.871 241.203 C 116.391 241.263 116.021 241.306 115.761 241.333 C 115.501 241.366 115.341 241.39 115.281 241.403 C 114.841 241.523 114.621 241.726 114.621 242.013 C 114.621 242.513 114.818 242.91 115.211 243.203 C 115.604 243.49 116.114 243.633 116.741 243.633 C 116.994 243.633 117.378 243.56 117.891 243.413 C 118.171 243.34 118.381 243.283 118.521 243.243 C 118.668 243.203 118.751 243.183 118.771 243.183 C 119.038 243.183 119.171 243.31 119.171 243.563 C 119.171 243.716 119.091 243.87 118.931 244.023 C 118.764 244.183 118.558 244.326 118.311 244.453 C 118.058 244.58 117.774 244.683 117.461 244.763 C 117.148 244.85 116.841 244.893 116.541 244.893 Z M 116.691 240.243 L 116.851 240.243 C 116.931 240.243 117.028 240.24 117.141 240.233 C 117.248 240.22 117.351 240.19 117.451 240.143 C 117.551 240.103 117.638 240.046 117.711 239.973 C 117.784 239.906 117.821 239.816 117.821 239.703 L 117.821 239.383 C 117.821 239.01 117.684 238.7 117.411 238.453 C 117.131 238.206 116.831 238.083 116.511 238.083 L 116.311 238.083 C 116.084 238.083 115.861 238.14 115.641 238.253 C 115.428 238.36 115.241 238.503 115.081 238.683 C 114.914 238.863 114.784 239.063 114.691 239.283 C 114.591 239.503 114.541 239.733 114.541 239.973 L 114.541 240.123 C 114.541 240.303 114.711 240.393 115.051 240.393 L 115.231 240.393 L 115.261 240.373 L 116.511 240.283 C 116.531 240.27 116.558 240.263 116.591 240.263 C 116.618 240.263 116.651 240.256 116.691 240.243 ZM 127.336 237.583 C 127.336 237.93 126.729 238.943 125.516 240.623 C 124.302 242.33 123.696 243.253 123.696 243.393 C 123.696 243.586 123.996 243.683 124.596 243.683 C 125.196 243.683 125.682 243.63 126.056 243.523 L 127.086 243.233 C 127.372 243.233 127.516 243.426 127.516 243.813 L 127.516 243.993 C 127.516 244.506 127.022 244.763 126.036 244.763 L 124.236 244.763 C 123.496 244.763 122.926 244.76 122.526 244.753 C 122.132 244.746 121.906 244.74 121.846 244.733 C 121.566 244.673 121.426 244.546 121.426 244.353 L 121.426 244.193 C 121.426 243.893 122.046 242.89 123.286 241.183 C 124.506 239.47 125.116 238.54 125.116 238.393 C 125.116 238.24 124.732 238.163 123.966 238.163 C 123.592 238.163 123.196 238.216 122.776 238.323 C 122.369 238.43 122.112 238.483 122.006 238.483 C 121.692 238.483 121.536 238.316 121.536 237.983 C 121.536 237.63 121.609 237.383 121.756 237.243 C 121.896 237.096 122.196 237.023 122.656 237.023 L 122.856 237.043 L 125.086 237.043 L 126.076 237.083 C 126.649 237.083 126.996 237.116 127.116 237.183 C 127.262 237.27 127.336 237.403 127.336 237.583 Z" transform="matrix(1, 0, 0, 1, 0, 0)" style="fill: rgb(51, 51, 51); white-space: pre;"/>
  <path d="M 82.402 262.873 L 82.242 262.873 C 81.702 262.873 81.229 262.78 80.822 262.593 C 80.409 262.406 80.062 262.153 79.782 261.833 C 79.502 261.506 79.289 261.12 79.142 260.673 C 79.002 260.233 78.932 259.75 78.932 259.223 L 78.932 259.043 C 78.932 257.83 79.262 256.863 79.922 256.143 C 80.582 255.423 81.512 255.063 82.712 255.063 C 83.359 255.063 83.886 255.19 84.292 255.443 C 84.699 255.69 84.902 256 84.902 256.373 C 84.902 256.773 84.699 256.973 84.292 256.973 C 84.246 256.973 84.179 256.953 84.092 256.913 C 84.012 256.88 83.922 256.84 83.822 256.793 C 83.729 256.753 83.642 256.71 83.562 256.663 C 83.482 256.616 83.426 256.573 83.392 256.533 C 82.999 256.366 82.632 256.283 82.292 256.283 C 81.792 256.283 81.379 256.516 81.052 256.983 C 80.726 257.456 80.562 258.123 80.562 258.983 C 80.562 259.85 80.756 260.503 81.142 260.943 C 81.529 261.39 82.026 261.613 82.632 261.613 C 82.972 261.613 83.392 261.54 83.892 261.393 C 84.372 261.24 84.669 261.163 84.782 261.163 C 84.982 261.163 85.082 261.276 85.082 261.503 C 85.082 261.663 85.002 261.823 84.842 261.983 C 84.682 262.143 84.469 262.29 84.202 262.423 C 83.936 262.556 83.649 262.663 83.342 262.743 C 83.029 262.83 82.716 262.873 82.402 262.873 ZM 92.925 255.583 C 92.925 255.93 92.319 256.943 91.105 258.623 C 89.892 260.33 89.285 261.253 89.285 261.393 C 89.285 261.586 89.585 261.683 90.185 261.683 C 90.785 261.683 91.272 261.63 91.645 261.523 L 92.675 261.233 C 92.962 261.233 93.105 261.426 93.105 261.813 L 93.105 261.993 C 93.105 262.506 92.612 262.763 91.625 262.763 L 89.825 262.763 C 89.085 262.763 88.515 262.76 88.115 262.753 C 87.722 262.746 87.495 262.74 87.435 262.733 C 87.155 262.673 87.015 262.546 87.015 262.353 L 87.015 262.193 C 87.015 261.893 87.635 260.89 88.875 259.183 C 90.095 257.47 90.705 256.54 90.705 256.393 C 90.705 256.24 90.322 256.163 89.555 256.163 C 89.182 256.163 88.785 256.216 88.365 256.323 C 87.959 256.43 87.702 256.483 87.595 256.483 C 87.282 256.483 87.125 256.316 87.125 255.983 C 87.125 255.63 87.199 255.383 87.345 255.243 C 87.485 255.096 87.785 255.023 88.245 255.023 L 88.445 255.043 L 90.675 255.043 L 91.665 255.083 C 92.239 255.083 92.585 255.116 92.705 255.183 C 92.852 255.27 92.925 255.403 92.925 255.583 ZM 96.476 259.543 C 95.529 257.443 95.056 256.286 95.056 256.073 C 95.056 255.82 95.146 255.64 95.326 255.533 C 95.506 255.433 95.783 255.383 96.156 255.383 C 96.349 255.383 96.499 255.406 96.606 255.453 C 96.713 255.506 96.796 255.586 96.856 255.693 C 96.916 255.8 96.966 255.95 97.006 256.143 C 97.053 256.336 97.106 256.576 97.166 256.863 C 97.226 257.15 97.316 257.506 97.436 257.933 C 97.556 258.36 97.683 258.773 97.816 259.173 C 97.956 259.573 98.096 259.916 98.236 260.203 C 98.369 260.483 98.479 260.623 98.566 260.623 C 98.613 260.623 98.686 260.556 98.786 260.423 C 98.913 260.256 99.053 260.003 99.206 259.663 C 99.353 259.316 99.493 258.943 99.626 258.543 C 99.759 258.143 99.873 257.726 99.966 257.293 C 100.066 256.86 100.126 256.47 100.146 256.123 C 100.173 255.81 100.233 255.576 100.326 255.423 C 100.413 255.263 100.629 255.183 100.976 255.183 L 101.176 255.183 C 101.643 255.183 101.876 255.363 101.876 255.723 C 101.876 255.956 101.786 256.3 101.606 256.753 C 101.413 257.22 101.276 257.603 101.196 257.903 C 100.356 260.75 99.733 262.573 99.326 263.373 C 98.939 264.18 98.513 264.803 98.046 265.243 C 97.579 265.676 97.099 265.893 96.606 265.893 C 96.126 265.893 95.886 265.74 95.886 265.433 C 95.886 265.226 96.106 265.033 96.546 264.853 C 97.006 264.673 97.369 264.426 97.636 264.113 C 97.909 263.8 98.046 263.373 98.046 262.833 C 98.046 262.56 97.843 262.063 97.436 261.343 C 97.229 260.983 97.046 260.653 96.886 260.353 C 96.719 260.053 96.583 259.783 96.476 259.543 ZM 106.911 262.763 L 106.621 262.763 C 105.867 262.763 105.344 262.476 105.051 261.903 C 104.764 261.323 104.621 260.433 104.621 259.233 C 104.621 258.06 104.554 257.246 104.421 256.793 C 104.361 256.613 104.231 256.42 104.031 256.213 C 103.824 256.006 103.721 255.826 103.721 255.673 L 103.721 255.563 C 103.721 255.443 103.841 255.3 104.081 255.133 C 104.201 255.046 104.294 254.983 104.361 254.943 C 104.427 254.903 104.477 254.85 104.511 254.783 C 104.551 254.716 104.584 254.63 104.611 254.523 C 104.644 254.416 104.684 254.253 104.731 254.033 C 104.851 253.6 104.974 253.296 105.101 253.123 C 105.227 252.95 105.397 252.863 105.611 252.863 C 105.831 252.863 105.981 252.926 106.061 253.053 C 106.147 253.18 106.237 253.436 106.331 253.823 C 106.377 254.01 106.424 254.166 106.471 254.293 C 106.511 254.42 106.567 254.526 106.641 254.613 C 106.714 254.693 106.811 254.766 106.931 254.833 C 107.051 254.9 107.217 254.97 107.431 255.043 C 107.851 255.19 108.061 255.37 108.061 255.583 C 108.061 255.776 107.837 255.956 107.391 256.123 C 106.971 256.27 106.697 256.463 106.571 256.703 C 106.351 257.13 106.241 257.903 106.241 259.023 C 106.241 260.15 106.337 260.826 106.531 261.053 C 106.724 261.306 107.037 261.463 107.471 261.523 C 107.897 261.57 108.111 261.733 108.111 262.013 C 108.111 262.213 107.991 262.39 107.751 262.543 C 107.504 262.69 107.224 262.763 106.911 262.763 ZM 116.693 262.193 C 116.693 262.54 116.346 262.713 115.653 262.713 C 115.593 262.713 115.506 262.696 115.393 262.663 C 115.286 262.636 115.149 262.586 114.983 262.513 C 114.669 262.393 114.466 262.333 114.373 262.333 C 114.273 262.333 113.989 262.423 113.523 262.603 C 113.056 262.783 112.636 262.873 112.263 262.873 L 112.083 262.873 C 111.809 262.873 111.546 262.826 111.293 262.733 C 111.039 262.633 110.819 262.493 110.633 262.313 C 110.446 262.133 110.296 261.916 110.183 261.663 C 110.069 261.416 110.013 261.13 110.013 260.803 C 110.013 259.483 110.843 258.673 112.503 258.373 C 113.583 258.16 114.133 258.046 114.153 258.033 C 114.406 257.9 114.533 257.666 114.533 257.333 C 114.533 256.98 114.426 256.693 114.213 256.473 C 113.993 256.253 113.696 256.143 113.323 256.143 C 112.943 256.143 112.513 256.263 112.033 256.503 C 111.526 256.756 111.183 256.883 111.003 256.883 C 110.669 256.883 110.503 256.653 110.503 256.193 C 110.503 256.053 110.573 255.91 110.713 255.763 C 110.859 255.616 111.053 255.486 111.293 255.373 C 111.533 255.26 111.809 255.166 112.123 255.093 C 112.436 255.026 112.759 254.993 113.093 254.993 L 113.493 254.993 C 113.993 254.993 114.439 255.086 114.833 255.273 C 115.219 255.466 115.516 255.726 115.723 256.053 C 116.023 256.493 116.173 257.543 116.173 259.203 C 116.173 260.136 116.189 260.713 116.223 260.933 C 116.263 261.173 116.353 261.4 116.493 261.613 C 116.626 261.826 116.693 262.02 116.693 262.193 Z M 112.783 261.833 L 113.023 261.833 C 113.516 261.833 113.903 261.67 114.183 261.343 C 114.463 261.016 114.603 260.55 114.603 259.943 L 114.603 259.633 C 114.603 259.246 114.443 259.053 114.123 259.053 L 113.883 259.053 L 113.273 259.113 C 112.793 259.113 112.399 259.243 112.093 259.503 C 111.786 259.77 111.633 260.09 111.633 260.463 L 111.633 260.733 C 111.633 261.006 111.733 261.256 111.933 261.483 C 112.133 261.716 112.416 261.833 112.783 261.833 ZM 119.871 262.563 L 119.851 262.563 C 119.264 262.563 118.971 262.36 118.971 261.953 C 118.971 261.786 119.018 261.546 119.111 261.233 C 119.171 261.093 119.214 260.953 119.241 260.813 C 119.261 260.673 119.281 260.52 119.301 260.353 C 119.321 260.186 119.331 259.993 119.331 259.773 C 119.331 259.56 119.331 259.296 119.331 258.983 L 119.331 257.133 C 119.344 257 119.351 256.886 119.351 256.793 C 119.351 256.706 119.351 256.633 119.351 256.573 L 119.271 255.763 C 119.271 255.583 119.434 255.493 119.761 255.493 C 120.088 255.493 120.418 255.583 120.751 255.763 C 121.098 255.943 121.308 256.033 121.381 256.033 C 121.468 256.033 121.624 255.98 121.851 255.873 C 122.078 255.766 122.341 255.653 122.641 255.533 C 122.941 255.413 123.254 255.353 123.581 255.353 L 123.791 255.353 C 124.178 255.353 124.521 255.456 124.821 255.663 C 125.121 255.876 125.341 256.163 125.481 256.523 C 125.541 256.71 125.601 256.973 125.661 257.313 C 125.714 257.646 125.751 258.066 125.771 258.573 L 125.811 259.413 C 125.831 259.653 125.848 259.92 125.861 260.213 C 125.874 260.513 125.941 260.816 126.061 261.123 C 126.181 261.436 126.241 261.653 126.241 261.773 C 126.241 262.233 125.894 262.463 125.201 262.463 C 124.901 262.463 124.681 262.403 124.541 262.283 C 124.401 262.163 124.331 261.956 124.331 261.663 L 124.351 261.383 C 124.351 260.363 124.311 259.513 124.231 258.833 C 124.158 258.153 124.054 257.633 123.921 257.273 C 123.694 256.713 123.291 256.433 122.711 256.433 C 122.438 256.433 122.171 256.496 121.911 256.623 C 121.651 256.756 121.451 256.98 121.311 257.293 C 121.044 257.82 120.911 258.863 120.911 260.423 L 120.981 261.833 C 120.981 262.046 120.874 262.223 120.661 262.363 C 120.448 262.496 120.184 262.563 119.871 262.563 ZM 129.757 262.783 L 129.367 262.783 C 129.147 262.783 128.96 262.72 128.807 262.593 C 128.647 262.466 128.567 262.326 128.567 262.173 C 128.567 262.066 128.617 261.856 128.717 261.543 C 128.797 261.29 128.837 261.043 128.837 260.803 L 128.877 260.213 L 128.877 257.163 C 128.85 256.863 128.807 256.63 128.747 256.463 L 128.677 256.303 C 128.57 256.03 128.517 255.886 128.517 255.873 L 128.517 255.713 C 128.517 255.413 128.83 255.263 129.457 255.263 L 129.727 255.263 C 129.914 255.263 130.057 255.28 130.157 255.313 C 130.25 255.346 130.32 255.423 130.367 255.543 C 130.407 255.663 130.43 255.843 130.437 256.083 C 130.444 256.323 130.447 256.65 130.447 257.063 L 130.447 258.823 L 130.497 259.923 C 130.497 260.536 130.624 261.056 130.877 261.483 C 130.97 261.676 131.017 261.87 131.017 262.063 C 131.017 262.276 130.897 262.45 130.657 262.583 C 130.417 262.716 130.117 262.783 129.757 262.783 Z M 129.637 251.933 L 129.907 251.933 C 130.12 251.933 130.307 251.996 130.467 252.123 C 130.634 252.256 130.717 252.456 130.717 252.723 L 130.717 252.903 C 130.717 253.116 130.647 253.306 130.507 253.473 C 130.367 253.646 130.184 253.733 129.957 253.733 L 129.817 253.743 L 129.557 253.743 C 129.51 253.736 129.434 253.733 129.327 253.733 C 129.234 253.733 129.124 253.67 128.997 253.543 C 128.87 253.416 128.807 253.273 128.807 253.113 L 128.767 252.863 L 128.767 252.833 L 128.807 252.573 C 128.807 252.453 128.874 252.316 129.007 252.163 C 129.134 252.01 129.344 251.933 129.637 251.933 ZM 136.734 262.893 L 136.394 262.893 C 135.867 262.893 135.394 262.8 134.974 262.613 C 134.554 262.426 134.201 262.166 133.914 261.833 C 133.621 261.506 133.401 261.123 133.254 260.683 C 133.101 260.25 133.024 259.773 133.024 259.253 L 133.024 258.913 C 133.024 258.373 133.114 257.87 133.294 257.403 C 133.474 256.936 133.731 256.53 134.064 256.183 C 134.391 255.843 134.781 255.576 135.234 255.383 C 135.681 255.19 136.174 255.093 136.714 255.093 L 136.884 255.093 C 137.604 255.093 138.204 255.31 138.684 255.743 C 138.944 255.996 139.144 256.3 139.284 256.653 C 139.424 257.006 139.494 257.326 139.494 257.613 C 139.494 257.926 139.457 258.173 139.384 258.353 C 139.311 258.533 139.181 258.676 138.994 258.783 C 138.807 258.896 138.557 258.98 138.244 259.033 C 137.937 259.086 137.544 259.143 137.064 259.203 C 136.584 259.263 136.214 259.306 135.954 259.333 C 135.694 259.366 135.534 259.39 135.474 259.403 C 135.034 259.523 134.814 259.726 134.814 260.013 C 134.814 260.513 135.011 260.91 135.404 261.203 C 135.797 261.49 136.307 261.633 136.934 261.633 C 137.187 261.633 137.571 261.56 138.084 261.413 C 138.364 261.34 138.574 261.283 138.714 261.243 C 138.861 261.203 138.944 261.183 138.964 261.183 C 139.231 261.183 139.364 261.31 139.364 261.563 C 139.364 261.716 139.284 261.87 139.124 262.023 C 138.957 262.183 138.751 262.326 138.504 262.453 C 138.251 262.58 137.967 262.683 137.654 262.763 C 137.341 262.85 137.034 262.893 136.734 262.893 Z M 136.884 258.243 L 137.044 258.243 C 137.124 258.243 137.221 258.24 137.334 258.233 C 137.441 258.22 137.544 258.19 137.644 258.143 C 137.744 258.103 137.831 258.046 137.904 257.973 C 137.977 257.906 138.014 257.816 138.014 257.703 L 138.014 257.383 C 138.014 257.01 137.877 256.7 137.604 256.453 C 137.324 256.206 137.024 256.083 136.704 256.083 L 136.504 256.083 C 136.277 256.083 136.054 256.14 135.834 256.253 C 135.621 256.36 135.434 256.503 135.274 256.683 C 135.107 256.863 134.977 257.063 134.884 257.283 C 134.784 257.503 134.734 257.733 134.734 257.973 L 134.734 258.123 C 134.734 258.303 134.904 258.393 135.244 258.393 L 135.424 258.393 L 135.454 258.373 L 136.704 258.283 C 136.724 258.27 136.751 258.263 136.784 258.263 C 136.811 258.263 136.844 258.256 136.884 258.243 Z" transform="matrix(1, 0, 0, 1, 0, 0)" style="fill: rgb(51, 51, 51); white-space: pre;"/>
</svg>